<?xml version="1.0" encoding="UTF-8"?>
<!DOCTYPE svg PUBLIC "-//W3C//DTD SVG 1.1//EN" "http://www.w3.org/Graphics/SVG/1.1/DTD/svg11.dtd">
<!-- Creator: CorelDRAW 2018 (64 Bit) -->
<svg xmlns="http://www.w3.org/2000/svg" xml:space="preserve" width="100%" height="100%" version="1.1" shape-rendering="geometricPrecision" text-rendering="geometricPrecision" image-rendering="optimizeQuality" fill-rule="evenodd" clip-rule="evenodd"
viewBox="0 0 2910.81 1538.42"
 xmlns:xlink="http://www.w3.org/1999/xlink">
 <g id="Ebene_x0020_1">
  <metadata id="CorelCorpID_0Corel-Layer"/>
  <path fill="#0A2737" d="M760.54 712.61c71.46,16.65 165.81,185.45 165.81,285.76 -61.52,0 -171.06,-11.32 -239.45,-18.09 -25.45,-2.52 -45.64,-14.54 -45.54,-41.79 0.16,-43.83 94.08,-178.44 119.18,-225.88zm1471.1 -56.44c21.36,-4.98 40.47,-15.36 63.42,-21.25 142.7,-36.59 298.82,13.57 397.91,113.79 9.08,9.18 14.03,16.66 22.77,26.61 41.69,47.4 67.91,109.51 83.23,170.78 14.41,57.64 14.41,124.51 0,182.15 -48.07,192.26 -206.82,325.21 -405.05,325.21 -87.76,0 -192.78,-35.1 -256.45,-89.27 -47.33,-40.27 -82.95,-78.27 -112.84,-137.64 -47.54,-94.39 -56.99,-201.8 -27.9,-304.34 4.23,-14.94 7.85,-25.78 13.84,-39.08 26.32,-58.56 64.35,-123.5 118.76,-159.93l98.83 229.26c31.72,71.33 30.04,60.02 119.9,60.02 9.53,0 9.73,-1.68 17.64,-3.53 6.48,-27.83 -10.08,-54.95 -25.9,-90.52 -13.08,-29.4 -25.53,-58.32 -37.1,-86.37 -12.35,-29.92 -70.44,-153.43 -71.06,-175.89zm-1308.82 451.56c0,41.24 -30.52,111.91 -47.3,139.68 -75.43,124.86 -208.73,206.05 -358.4,206.05 -380.96,0 -544.34,-454.62 -299.06,-704.76 101.82,-103.84 272.55,-154.92 415.08,-106.24 10.12,3.46 20.43,9.21 32.15,10.18 -1.21,14.48 -38.22,73.82 -47.85,89.74l-129.66 219.59c-17.7,29.53 -37.23,65.8 -5.3,95.73 22.92,21.48 85.99,20.07 119.2,21.91 16.82,0.94 49.27,3.96 64.58,5.98l193.09 15.05c20.41,0.52 44.28,6.66 63.47,7.09zm-98.78 -500.95l40.89 -72c16.71,-25.26 26.96,-55 61.42,-55 37.88,0 66.48,76.51 83.49,110.54l164.59 325.77c29.91,59.76 59.98,111.5 -44.01,100.46l-98.24 -7.6c0,-39.47 -12.19,-98.06 -21.57,-130.12 -15.82,-54.05 -40.32,-108.21 -73.13,-152.65 -16.92,-22.93 -52.89,-66.98 -72.15,-83.08 -10.3,-8.61 -35.36,-27.47 -41.29,-36.32zm532.7 342.2c-43.21,0 -50.23,-6.47 -70.54,-45.88l-36.47 -69.36c-23.72,-47.45 -46.15,-92.31 -69.38,-138.76 -23.23,-46.46 -45.66,-91.32 -69.38,-138.77 -14.66,-29.31 -68.2,-124.38 -68.2,-150.52 0,-31.06 38.76,-35.27 70.55,-35.27l783.18 0c30.65,0 91.72,0.29 91.72,28.22 0,19.16 -33.12,44.36 -48.86,56.97l-158.43 137.91c-9.02,8.44 -10.03,10.15 -20.53,18.28 -8.6,6.65 -10.76,10.32 -18.28,16.99l-178.28 156.87c-14.69,12.3 -25.58,21.5 -40.25,33.83 -36.45,30.66 -133.48,129.49 -166.85,129.49zm-694.98 -839.62c15.08,0 10.77,-2.45 21.69,-3.04l64.13 8.94c42.76,16.69 48.94,68.38 79.31,118.25 58.41,95.93 22.57,116.1 -63.52,259.68l-34.58 57.15c-28.16,-6.57 -54.05,-21.84 -108.46,-32.66 -47.5,-9.45 -112.21,-15.23 -162.3,-8.79 -133.9,17.21 -268.3,89.23 -348.15,195.12 -45.46,60.28 -71.22,113.32 -94.17,195.12 -22.46,80.09 -19.5,170.86 0.45,250.94 33.01,132.48 116.7,241.06 228.58,311.18 161.28,101.06 358.73,101.67 525.3,8.76 18.26,-10.19 28.54,-17.23 45.55,-28.53 27.42,-18.2 24.05,-18.98 43.21,-34.4 30.45,-24.52 48.67,-47.42 72.59,-79.11 37.38,-49.53 68.46,-118.44 85.22,-179.37 10.58,-38.47 4.95,-34.82 37.15,-30.92l108.72 7.92c46.07,3.5 90.64,10.35 141.34,10.35 37.43,0 91.88,-54.59 120.8,-80.29l243.42 -215.19c8.59,-8.03 12.51,-9.07 21.24,-17.57l197.16 -173.26c74.67,-59.77 143.26,-157.02 175.86,-81.66 6.19,14.33 13.95,30.02 17.64,45.86 -22.51,11.91 -58.19,51.37 -76.77,71.39 -79.31,85.47 -124.31,213.4 -124.31,337.83 0,85.41 21.38,150.1 46.35,211.18 10.56,25.85 29.65,59.09 45.87,81.13 31.22,42.45 22.99,32.81 60.36,70.18 214.27,214.27 561.84,200.82 758.69,-33.31 155.47,-184.91 160.78,-447.64 15.55,-642.15 -42.47,-56.89 -94.88,-101.82 -156.62,-136.19 -88.67,-49.37 -133.22,-56.93 -222.85,-66.44 -55.4,-5.88 -136.38,6.34 -188.88,23.87 -17.55,5.85 -40.68,12.1 -55.08,19.01l-63.6 -144.55c-10.43,-23.79 -19.8,-46.58 -30.64,-71.67 -10.84,-25.1 -22.3,-49.44 -32.26,-73.57l-62.82 -145.32c-24.19,-51.74 -33.84,-115.23 -92.9,-115.23l-398.65 0c-30.3,0 -52.92,19.91 -52.92,52.91 0,56.68 53.22,52.93 109.37,52.92l243.46 -0.05c30,-0.21 47.63,3.12 62.79,18.36 10.59,10.65 50.06,93.24 50.06,112.22 0,25.89 -36.62,28.22 -63.5,28.22l-814.93 0c-51.4,0 -73.27,-10.66 -93.3,-44.28 -7.91,-13.28 -45.44,-83.13 -47.81,-93.3 15.05,-22.48 17.94,-17.84 52.9,-17.65 28.65,0.14 116.75,1.7 140.95,-7.22 44.06,-16.23 39.81,-102.13 -28.05,-102.13l-412.75 0c-72.81,0 -78.93,109.36 14.11,109.36z"/>
 </g>
</svg>
