<svg height='100px' width='100px'  fill="#000000" xmlns="http://www.w3.org/2000/svg" viewBox="0 0 512 512" x="0px" y="0px"><title>shuttle-self-drives-autonomous-electric</title><g><path d="M450.012,213.445A127.961,127.961,0,0,0,359.23,176H152.77A128.757,128.757,0,0,0,24.012,303.755c0,.082-.012.162-.012.245v96a8.005,8.005,0,0,0,1.344,4.438l16,24A8,8,0,0,0,48,432H58.752a47.99,47.99,0,0,0,90.5,0h213.5a47.99,47.99,0,0,0,90.5,0H464a8,8,0,0,0,6.656-3.562l16-24A8.005,8.005,0,0,0,488,400V304.77c0-.315,0-.619-.011-.929A127.951,127.951,0,0,0,450.012,213.445ZM40,312H64a8,8,0,0,1,0,16H40Zm64,136a32,32,0,1,1,32-32A32.036,32.036,0,0,1,104,448Zm64-32H152a48,48,0,0,0-96,0H52.281L40,397.578V344H64a23.992,23.992,0,0,0,22.624-32H168Zm0-120H64.36A88.12,88.12,0,0,1,152,216h16Zm80,120H184V312h64Zm0-120H184V216h64Zm80,120H264V312h64Zm0-120H264V216h64ZM152,200A104.139,104.139,0,0,0,48.305,296h-7.96A112.765,112.765,0,0,1,152.77,192H359.23A112.765,112.765,0,0,1,471.655,296H463.7A104.139,104.139,0,0,0,360,200Zm295.64,96H344V216h16A88.12,88.12,0,0,1,447.64,296ZM408,448a32,32,0,1,1,32-32A32.036,32.036,0,0,1,408,448Zm64-50.422L459.719,416H456a48,48,0,0,0-96,0H344V312H472Z"></path><path d="M104,391a25,25,0,1,0,25,25A25.028,25.028,0,0,0,104,391Zm0,34a9,9,0,1,1,9-9A9.01,9.01,0,0,1,104,425Z"></path><path d="M408,391a25,25,0,1,0,25,25A25.028,25.028,0,0,0,408,391Zm0,34a9,9,0,1,1,9-9A9.01,9.01,0,0,1,408,425Z"></path><rect x="360" y="328" width="16" height="16"></rect><path d="M298.6,109.317,310.55,98.683a72.959,72.959,0,0,0-103.043-6.057l10.635,11.955a56.958,56.958,0,0,1,80.453,4.736Z"></path><path d="M279.913,125.317l11.955-10.634a47.974,47.974,0,0,0-67.755-3.982l10.635,11.955a31.972,31.972,0,0,1,45.165,2.661Z"></path><path d="M315.463,90.486l11.889-10.707A95.989,95.989,0,0,0,191.78,72.648l10.707,11.889a79.99,79.99,0,0,1,112.976,5.949Z"></path><circle cx="256" cy="143" r="15"></circle></g></svg>