<?xml version="1.0" encoding="UTF-8"?>
<!DOCTYPE svg PUBLIC "-//W3C//DTD SVG 1.1//EN" "http://www.w3.org/Graphics/SVG/1.1/DTD/svg11.dtd">
<!-- Creator: CorelDRAW 2020 (64-Bit) -->
<svg xmlns="http://www.w3.org/2000/svg" xml:space="preserve" width="107.266mm" height="90.7185mm" version="1.1" style="shape-rendering:geometricPrecision; text-rendering:geometricPrecision; image-rendering:optimizeQuality; fill-rule:evenodd; clip-rule:evenodd"
viewBox="0 0 9142.96 7732.51"
 xmlns:xlink="http://www.w3.org/1999/xlink"
 xmlns:xodm="http://www.corel.com/coreldraw/odm/2003">
 <defs>
  <style type="text/css">
   <![CDATA[
    .fil1 {fill:#009846}
    .fil0 {fill:#009846;fill-rule:nonzero}
   ]]>
  </style>
 </defs>
 <g id="Ebene_x0020_1">
  <metadata id="CorelCorpID_0Corel-Layer"/>
  <g id="_1842202973200">
   <path class="fil0" d="M7814.56 6069.37c-73.07,-94.34 -128.41,-155.26 -132.3,-159.49l-1075.8 -1139.48c-0.31,-0.31 -0.61,-0.61 -0.95,-1l-554.99 -587.76c-23.79,-25.17 -56.9,-39.46 -91.52,-39.46l-2812.89 -0.03c-69.48,0 -125.89,56.4 -125.89,125.89 0,69.48 56.4,125.89 125.89,125.89l2758.65 0 319.97 338.92 -845.39 -0.03c-48.02,0 -91.88,27.38 -113.03,70.48 -21.15,43.1 -15.87,94.54 13.54,132.47l998.51 1287.65c23.79,30.71 60.53,48.72 99.43,48.72l1274.79 0.03c230.86,309.33 335.34,576.06 273.08,703.51 -56.44,115.5 -265.85,139.78 -431.43,139.78l-300.85 0.03 -730.54 0 -514.07 0 -729.84 0 -1149.1 0 -730.47 0 -762 0c-69.48,0 -125.88,56.4 -125.88,125.89 0,69.48 56.4,125.89 125.88,125.89l653.05 -0.03c55.83,209.9 246.91,365.28 474.11,365.28 227.2,0 418.36,-155.33 474.19,-365.28l931.29 0c55.82,209.9 246.91,365.28 474.11,365.28 226.96,0 417.85,-155.33 473.61,-365.28l296.26 0c55.83,209.9 246.91,365.28 474.11,365.28 227.2,0 418.36,-155.33 474.12,-365.28l191.96 0c345.21,0 566.51,-94.54 657.59,-280.96 144.87,-296.14 -103.48,-716.61 -337.17,-1016.9zm-1375.07 -48.83l-803.22 -1035.91 826.2 0 978.12 1035.91 -1001.1 0zm-2734.92 1460.3c-85.85,0 -161.31,-45.44 -203.48,-113.54l407.01 0c-42.29,68.15 -117.68,113.54 -203.53,113.54zm1879.58 0c-85.85,0 -161.3,-45.44 -203.48,-113.54l406.51 0c-42.16,68.15 -117.45,113.54 -203.03,113.54zm1243.9 0c-85.85,0 -161.3,-45.44 -203.48,-113.54l407.03 0c-42.23,68.15 -117.7,113.54 -203.55,113.54z"/>
   <path class="fil0" d="M4904.04 6629.71l0 -1770.95c0,-69.48 -56.4,-125.89 -125.89,-125.89 -69.48,0 -125.89,56.4 -125.89,125.89l0.03 1770.95c0,69.48 56.4,125.89 125.89,125.89 69.48,0 125.86,-56.4 125.86,-125.89z"/>
   <path class="fil0" d="M3769.2 6830.81c264.67,0 479.97,-215.3 479.97,-479.96l0 -1213.15c0,-264.66 -215.3,-479.97 -479.97,-479.97 -264.66,0 -479.97,215.31 -479.97,479.97l0 1213.13c0,264.66 215.31,479.98 479.97,479.98zm-228.22 -1693.11c0,-125.89 102.33,-228.22 228.22,-228.22 125.89,0 228.22,102.33 228.22,228.22l0 1213.13c0,125.81 -102.33,228.22 -228.22,228.22 -125.89,0 -228.22,-102.41 -228.22,-228.22l0 -1213.13z"/>
   <path class="fil0" d="M5830.24 6272.28c69.48,0 125.89,-56.4 125.89,-125.89 0,-69.48 -56.4,-125.89 -125.89,-125.89l-450.9 0.03c-69.48,0 -125.88,56.4 -125.88,125.89 0,69.48 56.4,125.88 125.88,125.88l450.9 -0.02z"/>
   <path class="fil1" d="M7579.12 3941.15c-183.16,0 -310.96,-36.71 -430.69,-153.98 -325.18,-318.6 -168.03,-961.25 419.89,-961.25 425.72,0 732.11,560.37 373.91,947.78 -67.43,72.93 -228.59,167.46 -363.12,167.46zm-5456.97 -1115.23c649.83,0 774.59,809.82 278.07,1057.63 -380.26,189.8 -819.03,-98.93 -818.32,-494.59 0.25,-142.84 62.3,-292.15 158.33,-392.76 80.28,-84.15 222.18,-170.28 381.92,-170.28zm-519.69 -1212.67c0,83.48 51.69,132.87 116.91,153.79 74.21,23.82 4776.23,8.63 5188.48,8.63 568.03,0 1038.38,39.57 1525.6,239.24 89.28,36.58 95.73,142.25 137.93,284.36 39.87,134.24 242.09,745.64 242.09,873.13 0,206.89 -243.59,173.24 -378.97,173.24 0,-220.36 -126.82,-445.08 -273.37,-592.83 -250.69,-252.78 -617.32,-327.32 -962.63,-188.45 -186.63,75.08 -360.86,236.35 -452.45,413.75 -35.91,69.51 -98.06,244.7 -98.06,345.85l-3616.32 0c0,-251.57 -178.84,-535.4 -393.95,-677.94 -48.22,-31.95 -82.65,-54.57 -139.58,-77 -61.01,-24.04 -91.89,-36.5 -163.89,-52.61 -399.44,-89.5 -806.57,111.53 -984.55,468.16 -40.69,81.55 -93.7,223.8 -93.7,339.39l-714.61 0c-262.81,0 -216.56,-507.45 -216.56,-671.28 0,-238.32 34.78,-1066.15 52.57,-1225.08l34.47 -604.38c2.14,-251.21 -18.33,-385.48 172.76,-466.05 127.77,-53.84 423.51,-32.41 606.4,-32.41 642.43,0 1284.83,0 1927.26,0 10.13,43.52 25.07,85.07 39.4,133.85l221.74 698.6c18.26,57.6 81.03,231.16 85.32,282.78l-1526.64 0c-174.82,0 -335.64,-4.05 -335.64,173.23l0 0.01zm4699.05 -1288.45c375.35,0 845.52,-18.56 1197.3,58.69 161.59,35.48 459.14,131.36 563.34,270.35 62.52,83.4 83.67,192.8 116.26,306.02 32.69,113.5 62.3,215.33 94.96,327.3 15.07,51.68 29.37,103.03 45.79,159.93 16.08,55.64 39.57,114.75 39.57,176.99l-379.8 -85.78c-137.32,-27.62 -265.78,-40.63 -415.16,-61.23 -106.32,-14.64 -836.89,-58.87 -904.93,-26.21 -35.11,-150.76 -218.46,-655.13 -268.39,-836 -24.65,-89.28 -78.33,-207.6 -88.92,-290.07l-0.01 0zm-2836.77 0l952.85 -0.03c134.27,-0.61 142.5,-18.54 187.95,136.88l310.07 978.38 -1104.39 0c-22.5,-96.62 -53.74,-176.14 -82.71,-274.6l-221.72 -698.59c-13.93,-43.92 -35.42,-90.36 -42.05,-142.05l0 0zm1440.04 0l1050.26 0 357.3 1115.23 -1050.26 0 -312.62 -975.83c-12.98,-38.85 -30.17,-106.89 -44.68,-139.4zm-4904.78 2143.82l0 552.19c0,265.84 169.64,526.75 361.51,602.13 169.14,66.42 693.26,36.68 937.78,36.68 8.83,106.16 186.51,332.02 278.86,414.08 289.81,257.63 838.36,260.41 1131.34,0 172.2,-153.05 191.64,-228.8 289.69,-414.08l3692.09 0c13.9,59.69 86.37,181.04 119.14,227.36 156.19,220.57 387.23,378.97 671.25,378.97 191.02,0 335.69,-6.9 500.27,-106.06 150.84,-90.91 275.54,-225.62 355.21,-381.03 40.83,-79.62 27.84,-97.51 151,-98.03 168.9,-0.74 303.48,-20.29 415.56,-82.5 106.5,-59.11 173.1,-155.21 211.77,-275.46 51.5,-160.02 21.94,-268.98 -18.17,-412.71 -172.54,-618.34 -378.48,-1270.04 -559.13,-1898.66 -19.49,-67.82 -35.88,-123.35 -56.5,-192.52 -95.58,-320.72 -191.05,-498.3 -580.74,-653.6 -212.63,-84.73 -528.63,-165.39 -819.89,-165.39l-6355.63 0c-226.17,0 -441.16,120.22 -532.89,257.5 -92.2,137.96 -103.95,309.65 -105.52,489.99 -2.05,242.91 -54.38,700.1 -54.17,952.75l-22.16 378.48c0.92,132.74 -10.68,246.82 -10.68,389.9l0 0z"/>
  </g>
 </g>
</svg>
