<svg height='100px' width='100px'  fill="#000000" xmlns="http://www.w3.org/2000/svg" xmlns:xlink="http://www.w3.org/1999/xlink" version="1.1" x="0px" y="0px" viewBox="0 0 100 100" style="enable-background:new 0 0 100 100;" xml:space="preserve"><path d="M80.3,43.2L73,28.7c-1.2-3-4.2-4.9-7.4-4.9h-7.3L57.6,21c-0.3-1.1-1.3-1.8-2.4-1.8H44.8c-1.1,0-2.1,0.7-2.4,1.8l-0.8,2.8H33  c-3.2,0-6.1,1.9-7.4,4.9l-7.4,14.7c-3.5,0.9-6,4-6,7.7l0.7,19.8c0.2,2,1.7,3.5,3.7,3.6v4.1c0,1.2,1.4,2.2,3.2,2.2h8.4  c1.7,0,3.2-1,3.2-2.2v-4h37.3v4c0,1.2,1.4,2.2,3.2,2.2h8.4c1.7,0,3.2-1,3.2-2.2v-4.1c1.9-0.2,3.5-1.7,3.7-3.6l0.7-19.8  C87.8,46.9,84.5,43.4,80.3,43.2z M33.9,59.3H23c-3.4,0-6.7-2.8-7.3-6.3c-0.5-3.3,1.7-6,5-6.1c2,0,3.9,0.8,5.3,2.2  c1.2,1.2,2.7,2,4.2,2.5l3.2,1c0.7,0.2,1.3,0.9,1.5,1.6l0.6,3.2C35.5,58.6,34.8,59.3,33.9,59.3z M22.5,41.8l5.8-11.6l0-0.1  c0.8-1.9,2.6-3.1,4.6-3.1h32.7c2,0,3.8,1.2,4.6,3.1l0.1,0.2l5.8,11.5c0,1.2-12,2.2-26.8,2.2S22.5,43,22.5,41.8z M84.3,53.1  c-0.6,3.5-3.8,6.3-7.3,6.3H66.1c-1,0-1.6-0.8-1.4-1.7l0.6-3.2c0.1-0.7,0.7-1.4,1.5-1.6l3.2-1c1.5-0.5,3-1.4,4.2-2.5  c1.4-1.4,3.3-2.3,5.3-2.2C82.6,47,84.9,49.8,84.3,53.1z"></path></svg>