<?xml version="1.0" encoding="UTF-8" standalone="no"?>
<!DOCTYPE svg PUBLIC "-//W3C//DTD SVG 1.1//EN" "http://www.w3.org/Graphics/SVG/1.1/DTD/svg11.dtd">
<svg width="100%" height="100%" viewBox="0 0 1280 560" version="1.1" xmlns="http://www.w3.org/2000/svg" xmlns:xlink="http://www.w3.org/1999/xlink" xml:space="preserve" xmlns:serif="http://www.serif.com/" style="fill-rule:evenodd;clip-rule:evenodd;stroke-linecap:round;stroke-linejoin:round;stroke-miterlimit:1.5;">
    <rect x="0" y="0" width="1280" height="560" style="fill:rgb(224,224,224);"/>
    <g>
        <g transform="matrix(1,0,0,1,100,100)">
            <rect x="0" y="0" width="1080" height="360" style="fill:rgb(255,223,207);"/>
            <path d="M1080.83,0C1080.83,-0.457 1080.46,-0.828 1080,-0.828L-0,-0.828C-0.457,-0.828 -0.828,-0.457 -0.828,-0L-0.828,360C-0.828,360.457 -0.457,360.828 -0,360.828L1080,360.828C1080.46,360.828 1080.83,360.457 1080.83,360L1080.83,0ZM1080,0L0,0L0,360L1080,360L1080,0Z"/>
        </g>
        <g transform="matrix(0.962963,0,0,0.888889,120,120)">
            <rect x="0" y="0" width="1080" height="360" style="fill:white;"/>
        </g>
        <rect x="120" y="120" width="500" height="320" style="fill:rgb(229,255,230);"/>
        <rect x="660" y="120" width="500" height="320" style="fill:rgb(213,212,255);"/>
    </g>
    <g>
        <g transform="matrix(1,0,0,1,5.68434e-14,2)">
            <path d="M100,68L1180,68" style="fill:none;stroke:black;stroke-width:2.01px;"/>
        </g>
        <g transform="matrix(1,0,0,0.592593,1080,30)">
            <path d="M100,54L100,81" style="fill:none;stroke:black;stroke-width:2.45px;stroke-linecap:butt;"/>
        </g>
        <g transform="matrix(1,0,0,0.592593,0,30)">
            <path d="M100,54L100,81" style="fill:none;stroke:black;stroke-width:2.45px;stroke-linecap:butt;"/>
        </g>
        <path d="M100,78L100,100" style="fill:none;stroke:rgb(145,145,145);stroke-width:2.01px;stroke-linecap:butt;stroke-dasharray:2.01,2.01,2.01,0;"/>
        <path d="M1180,78L1180,100" style="fill:none;stroke:rgb(145,145,145);stroke-width:2.01px;stroke-linecap:butt;stroke-dasharray:2.01,2.01,2.01,0;"/>
    </g>
    <g>
        <path d="M70,100L70,460" style="fill:none;stroke:black;stroke-width:2.01px;"/>
        <g transform="matrix(6.12323e-17,-1,0.592593,3.62858e-17,30,200)">
            <path d="M100,54L100,81" style="fill:none;stroke:black;stroke-width:2.45px;stroke-linecap:butt;"/>
        </g>
        <g transform="matrix(6.12323e-17,-1,0.592593,3.62858e-17,30,560)">
            <path d="M100,54L100,81" style="fill:none;stroke:black;stroke-width:2.45px;stroke-linecap:butt;"/>
        </g>
        <path d="M78,100L100,100" style="fill:none;stroke:rgb(145,145,145);stroke-width:2.01px;stroke-linecap:butt;stroke-dasharray:2.01,2.01,2.01,0;"/>
        <path d="M78,460L100,460" style="fill:none;stroke:rgb(145,145,145);stroke-width:2.01px;stroke-linecap:butt;stroke-dasharray:2.01,2.01,2.01,0;"/>
    </g>
    <g>
        <g transform="matrix(1,0,0,1,0,15)">
            <path d="M1160,490L1180,490" style="fill:none;stroke:black;stroke-width:2.01px;"/>
        </g>
        <g transform="matrix(1,0,0,0.592593,1080,465)">
            <path d="M100,54L100,81" style="fill:none;stroke:black;stroke-width:2.45px;stroke-linecap:butt;"/>
        </g>
        <g transform="matrix(1,0,0,0.592593,1060,465)">
            <path d="M100,54L100,81" style="fill:none;stroke:black;stroke-width:2.45px;stroke-linecap:butt;"/>
        </g>
        <g transform="matrix(1,0,0,1.68182,0,-313.636)">
            <path d="M1180,482L1180,460" style="fill:none;stroke:rgb(145,145,145);stroke-width:1.45px;stroke-linecap:butt;stroke-dasharray:1.45,1.45,1.45,0;"/>
        </g>
    </g>
    <g>
        <path d="M1210,460L1210,440" style="fill:none;stroke:black;stroke-width:2.01px;"/>
        <g transform="matrix(6.12323e-17,-1,0.592593,3.62858e-17,1170,560)">
            <path d="M100,54L100,81" style="fill:none;stroke:black;stroke-width:2.45px;stroke-linecap:butt;"/>
        </g>
        <g transform="matrix(6.12323e-17,-1,0.592593,3.62858e-17,1170,540)">
            <path d="M100,54L100,81" style="fill:none;stroke:black;stroke-width:2.45px;stroke-linecap:butt;"/>
        </g>
        <path d="M1202,440L1181,440" style="fill:none;stroke:rgb(145,145,145);stroke-width:2.01px;stroke-linecap:butt;stroke-dasharray:2.01,2.01,2.01,0;"/>
        <path d="M1202,460L1180,460" style="fill:none;stroke:rgb(145,145,145);stroke-width:2.01px;stroke-linecap:butt;stroke-dasharray:2.01,2.01,2.01,0;"/>
    </g>
    <g>
        <path d="M640,120L640,440" style="fill:none;stroke:rgb(101,101,101);stroke-width:2.01px;stroke-linecap:butt;"/>
        <path d="M100,280L1180,280" style="fill:none;stroke:rgb(145,145,145);stroke-width:2.01px;stroke-linecap:butt;stroke-dasharray:2.01,2.01,2.01,0;"/>
    </g>
    <g>
        <path d="M120,490L620,490" style="fill:none;stroke:black;stroke-width:2.01px;stroke-linecap:butt;"/>
        <g transform="matrix(1,0,0,0.592593,520,450)">
            <path d="M100,54L100,81" style="fill:none;stroke:black;stroke-width:2.45px;stroke-linecap:butt;"/>
        </g>
        <g transform="matrix(1,0,0,0.592593,20,450)">
            <path d="M100,54L100,81" style="fill:none;stroke:black;stroke-width:2.45px;stroke-linecap:butt;"/>
        </g>
        <path d="M620,482L620,460" style="fill:none;stroke:rgb(145,145,145);stroke-width:2.01px;stroke-linecap:butt;stroke-dasharray:2.01,2.01,2.01,0;"/>
        <path d="M120,482L120,460" style="fill:none;stroke:rgb(145,145,145);stroke-width:2.01px;stroke-linecap:butt;stroke-dasharray:2.01,2.01,2.01,0;"/>
    </g>
    <g>
        <path d="M660,490L1160,490" style="fill:none;stroke:black;stroke-width:2.01px;stroke-linecap:butt;"/>
        <g transform="matrix(1,0,0,0.592593,560,450)">
            <path d="M100,54L100,81" style="fill:none;stroke:black;stroke-width:2.45px;stroke-linecap:butt;"/>
        </g>
        <g transform="matrix(1,0,0,0.592593,1060,450)">
            <path d="M100,54L100,81" style="fill:none;stroke:black;stroke-width:2.45px;stroke-linecap:butt;"/>
        </g>
        <path d="M1160,482L1160,460" style="fill:none;stroke:rgb(145,145,145);stroke-width:2.01px;stroke-linecap:butt;stroke-dasharray:2.01,2.01,2.01,0;"/>
        <path d="M660,482L660,460" style="fill:none;stroke:rgb(145,145,145);stroke-width:2.01px;stroke-linecap:butt;stroke-dasharray:2.01,2.01,2.01,0;"/>
    </g>
    <g>
        <g transform="matrix(2,0,0,1,-620,15)">
            <path d="M620,490L640,490" style="fill:none;stroke:black;stroke-width:1.27px;stroke-linecap:butt;"/>
        </g>
        <g transform="matrix(1,0,0,0.592593,560,465)">
            <path d="M100,54L100,81" style="fill:none;stroke:black;stroke-width:2.45px;stroke-linecap:butt;"/>
        </g>
        <g transform="matrix(1,0,0,0.592593,520,465)">
            <path d="M100,54L100,81" style="fill:none;stroke:black;stroke-width:2.45px;stroke-linecap:butt;"/>
        </g>
    </g>
    <g transform="matrix(1,0,0,1,0,7)">
        <g transform="matrix(0.75,0,0,0.75,166.75,20.5)">
            <circle cx="631" cy="30" r="16" style="fill:none;stroke:black;stroke-width:1.58px;stroke-linecap:butt;"/>
        </g>
        <g transform="matrix(1.3624,0,0,1.3624,-231.161,-16.2389)">
            <text x="635px" y="49px" style="font-family:'ArialMT', 'Arial', sans-serif;font-size:15.357px;">1</text>
        </g>
    </g>
    <g transform="matrix(1,0,0,1,-590,237)">
        <g transform="matrix(0.75,0,0,0.75,166.75,20.5)">
            <circle cx="631" cy="30" r="16" style="fill:none;stroke:black;stroke-width:1.58px;stroke-linecap:butt;"/>
        </g>
        <g transform="matrix(1.3624,0,0,1.3624,-231.161,-16.2389)">
            <text x="635px" y="49px" style="font-family:'ArialMT', 'Arial', sans-serif;font-size:15.357px;">2</text>
        </g>
    </g>
    <g transform="matrix(1,0,0,1,590,407)">
        <g transform="matrix(0.75,0,0,0.75,166.75,20.5)">
            <circle cx="631" cy="30" r="16" style="fill:none;stroke:black;stroke-width:1.58px;stroke-linecap:butt;"/>
        </g>
        <g transform="matrix(1.3624,0,0,1.3624,-231.161,-16.2389)">
            <text x="635px" y="49px" style="font-family:'ArialMT', 'Arial', sans-serif;font-size:15.357px;">3</text>
        </g>
    </g>
    <g transform="matrix(1,0,0,1,530,482)">
        <g transform="matrix(0.75,0,0,0.75,166.75,20.5)">
            <circle cx="631" cy="30" r="16" style="fill:none;stroke:black;stroke-width:1.58px;stroke-linecap:butt;"/>
        </g>
        <g transform="matrix(1.3624,0,0,1.3624,-231.161,-16.2389)">
            <text x="635px" y="49px" style="font-family:'ArialMT', 'Arial', sans-serif;font-size:15.357px;">3</text>
        </g>
    </g>
    <g transform="matrix(1,0,0,1,-1,482)">
        <g transform="matrix(0.75,0,0,0.75,166.75,20.5)">
            <circle cx="631" cy="30" r="16" style="fill:none;stroke:black;stroke-width:1.58px;stroke-linecap:butt;"/>
        </g>
        <g transform="matrix(1.3624,0,0,1.3624,-231.161,-16.2389)">
            <text x="635px" y="49px" style="font-family:'ArialMT', 'Arial', sans-serif;font-size:15.357px;">4</text>
        </g>
    </g>
    <g transform="matrix(1,0,0,1,-270,482.031)">
        <g transform="matrix(0.75,0,0,0.75,166.75,20.5)">
            <circle cx="631" cy="30" r="16" style="fill:none;stroke:black;stroke-width:1.58px;stroke-linecap:butt;"/>
        </g>
        <g transform="matrix(1.3624,0,0,1.3624,-231.161,-16.2389)">
            <text x="635px" y="49px" style="font-family:'ArialMT', 'Arial', sans-serif;font-size:15.357px;">5</text>
        </g>
    </g>
    <g transform="matrix(1,0,0,1,270,482.291)">
        <g transform="matrix(0.75,0,0,0.75,166.75,20.5)">
            <circle cx="631" cy="30" r="16" style="fill:none;stroke:black;stroke-width:1.58px;stroke-linecap:butt;"/>
        </g>
        <g transform="matrix(1.3624,0,0,1.3624,-231.161,-16.2389)">
            <text x="635px" y="49px" style="font-family:'ArialMT', 'Arial', sans-serif;font-size:15.357px;">6</text>
        </g>
    </g>
</svg>
