<svg xmlns="http://www.w3.org/2000/svg" xmlns:xlink="http://www.w3.org/1999/xlink" width="100" height="100" viewBox="0 0 100 100"><g><g transform="translate(50 50) scale(0.69 0.69) rotate(0) translate(-50 -50)" style="fill:#000000"><svg fill="#000000" xmlns="http://www.w3.org/2000/svg" xmlns:xlink="http://www.w3.org/1999/xlink" version="1.1" x="0px" y="0px" viewBox="0 0 100 100" style="enable-background:new 0 0 100 100;" xml:space="preserve"><style type="text/css">
	.st0{fill:#000000;}
</style><g><path d="M51.5,25.0102158v-8.6484375h5.3237305c0.8286133,0,1.5-0.671875,1.5-1.5s-0.6713867-1.5-1.5-1.5H43.1762695   c-0.8286133,0-1.5,0.671875-1.5,1.5s0.6713867,1.5,1.5,1.5H48.5v8.6484375   c-16.307373,0.7852783-29.3334961,14.296936-29.3334961,30.7949219c0,17.0009766,13.8320312,30.8330078,30.8334961,30.8330078   s30.8334961-13.8320312,30.8334961-30.8330078C80.8334961,39.3071518,67.807373,25.7954941,51.5,25.0102158z M51.5,83.5965805   V76.514122c0-0.828125-0.6713867-1.5-1.5-1.5s-1.5,0.671875-1.5,1.5v7.0824585   c-14.2580566-0.7610474-25.6970215-12.3010864-26.3032227-26.5990601h6.7861328c0.8286133,0,1.5-0.671875,1.5-1.5   s-0.6713867-1.5-1.5-1.5h-6.7512817C23.1350708,39.9853745,34.4472656,28.7637558,48.5,28.0136948v6.4662476   c0,0.828125,0.6713867,1.5,1.5,1.5s1.5-0.671875,1.5-1.5v-6.4662476   c14.0527344,0.750061,25.3649292,11.9716797,26.2683716,25.9838257h-6.7512817c-0.8286133,0-1.5,0.671875-1.5,1.5   s0.6713867,1.5,1.5,1.5h6.7861328C77.1970215,71.2954941,65.7580566,82.8355331,51.5,83.5965805z"></path><path d="M59.934082,41.5502548c-0.6884766-0.4619141-1.6201172-0.2763672-2.0810547,0.4111328l-6.1959229,9.239502   C51.1369629,51.0129623,50.5841675,50.8930283,50,50.8930283c-2.7084961,0-4.9121094,2.203125-4.9121094,4.9121094   S47.2915039,60.717247,50,60.717247s4.9121094-2.203125,4.9121094-4.9121094c0-1.0317383-0.3227539-1.9874878-0.8681641-2.7786865   l6.300293-9.3951416C60.8056641,42.9438095,60.6220703,42.0121689,59.934082,41.5502548z M50,57.717247   c-1.0541992,0-1.9121094-0.8574219-1.9121094-1.9121094S48.9458008,53.8930283,50,53.8930283   s1.9121094,0.8574219,1.9121094,1.9121094S51.0541992,57.717247,50,57.717247z"></path></g></svg></g></g></svg>