<svg width="203" height="161" xmlns="http://www.w3.org/2000/svg" xmlns:xlink="http://www.w3.org/1999/xlink" overflow="hidden"><defs><clipPath id="clip0"><rect x="589" y="309" width="203" height="161"/></clipPath><clipPath id="clip1"><rect x="590" y="310" width="159" height="159"/></clipPath><clipPath id="clip2"><rect x="590" y="310" width="159" height="159"/></clipPath><clipPath id="clip3"><rect x="590" y="310" width="159" height="159"/></clipPath><clipPath id="clip4"><rect x="731" y="310" width="60" height="60"/></clipPath><clipPath id="clip5"><rect x="731" y="310" width="60" height="60"/></clipPath><clipPath id="clip6"><rect x="731" y="310" width="60" height="60"/></clipPath></defs><g clip-path="url(#clip0)" transform="translate(-589 -309)"><g clip-path="url(#clip1)"><g clip-path="url(#clip2)"><g clip-path="url(#clip3)"><path d="M729.75 376.285C722.273 368.813 712.128 364.629 701.558 364.656L637.442 364.656C615.48 364.655 597.628 382.368 597.457 404.33 597.457 404.356 597.453 404.38 597.453 404.406L597.453 434.219C597.453 434.709 597.598 435.189 597.87 435.597L602.839 443.05C603.3 443.741 604.076 444.156 604.906 444.156L608.245 444.156C610.987 451.917 619.5 455.986 627.261 453.245 631.509 451.745 634.849 448.404 636.35 444.156L702.651 444.156C705.393 451.917 713.907 455.986 721.667 453.245 725.915 451.745 729.256 448.404 730.756 444.156L734.094 444.156C734.924 444.156 735.7 443.741 736.161 443.05L741.13 435.597C741.402 435.189 741.547 434.709 741.547 434.219L741.547 404.645C741.547 404.548 741.547 404.453 741.543 404.357 741.496 393.805 737.253 383.705 729.75 376.285ZM602.422 406.891 609.875 406.891C611.247 406.891 612.359 408.003 612.359 409.375 612.359 410.747 611.247 411.859 609.875 411.859L602.422 411.859ZM622.297 449.125C616.809 449.125 612.359 444.676 612.359 439.188 612.359 433.699 616.809 429.25 622.297 429.25 627.785 429.25 632.234 433.699 632.234 439.188 632.228 444.673 627.783 449.119 622.297 449.125ZM642.172 439.188 637.203 439.188C637.203 430.955 630.529 424.281 622.297 424.281 614.064 424.281 607.391 430.955 607.391 439.188L606.236 439.188 602.422 433.467 602.422 416.828 609.875 416.828C613.99 416.829 617.327 413.495 617.328 409.38 617.328 408.532 617.184 407.69 616.901 406.891L642.172 406.891ZM642.172 401.922 609.987 401.922C611.288 387.858 623.079 377.095 637.203 377.078L642.172 377.078ZM667.016 439.188 647.141 439.188 647.141 406.891 667.016 406.891ZM667.016 401.922 647.141 401.922 647.141 377.078 667.016 377.078ZM691.859 439.188 671.984 439.188 671.984 406.891 691.859 406.891ZM691.859 401.922 671.984 401.922 671.984 377.078 691.859 377.078ZM637.203 372.109C620.337 372.13 606.319 385.108 605.001 401.922L602.529 401.922C603.95 383.692 619.157 369.625 637.442 369.625L701.558 369.625C719.843 369.625 735.05 383.692 736.471 401.922L734.001 401.922C732.682 385.107 718.663 372.129 701.797 372.109ZM729.013 401.922 696.828 401.922 696.828 377.078 701.797 377.078C715.921 377.095 727.712 387.858 729.013 401.922ZM716.703 449.125C711.215 449.125 706.766 444.676 706.766 439.188 706.766 433.699 711.215 429.25 716.703 429.25 722.191 429.25 726.641 433.699 726.641 439.188 726.634 444.673 722.189 449.119 716.703 449.125ZM736.578 433.467 732.764 439.188 731.609 439.188C731.609 430.955 724.936 424.281 716.703 424.281 708.471 424.281 701.797 430.955 701.797 439.188L696.828 439.188 696.828 406.891 736.578 406.891Z"/><path d="M622.297 431.424C618.009 431.424 614.533 434.9 614.533 439.188 614.533 443.475 618.009 446.951 622.297 446.951 626.585 446.951 630.061 443.475 630.061 439.188 630.056 434.902 626.583 431.429 622.297 431.424ZM622.297 441.982C620.753 441.982 619.502 440.731 619.502 439.188 619.502 437.644 620.753 436.393 622.297 436.393 623.84 436.393 625.092 437.644 625.092 439.188 625.09 440.73 623.84 441.981 622.297 441.982Z"/><path d="M716.703 431.424C712.415 431.424 708.939 434.9 708.939 439.188 708.939 443.475 712.415 446.951 716.703 446.951 720.991 446.951 724.467 443.475 724.467 439.188 724.462 434.902 720.989 431.429 716.703 431.424ZM716.703 441.982C715.16 441.982 713.908 440.731 713.908 439.188 713.908 437.644 715.16 436.393 716.703 436.393 718.247 436.393 719.498 437.644 719.498 439.188 719.496 440.73 718.246 441.981 716.703 441.982Z"/><path d="M701.797 411.859 706.766 411.859 706.766 416.828 701.797 416.828Z"/><path d="M682.729 343.948 686.44 340.646C678.13 331.29 663.81 330.443 654.454 338.753 654.45 338.757 654.445 338.761 654.441 338.765L657.743 342.477C665.042 335.984 676.222 336.636 682.716 343.934 682.72 343.939 682.724 343.944 682.728 343.948Z"/><path d="M676.926 348.917 680.639 345.614C675.174 339.463 665.758 338.906 659.606 344.37 659.603 344.373 659.6 344.375 659.598 344.378L662.9 348.09C666.997 344.445 673.273 344.811 676.918 348.908 676.921 348.911 676.923 348.914 676.926 348.917Z"/><path d="M687.966 338.1 691.658 334.775C680.645 322.538 661.797 321.545 649.56 332.558 649.559 332.559 649.558 332.56 649.557 332.561L652.882 336.253C663.078 327.074 678.785 327.9 687.963 338.097 687.964 338.098 687.965 338.099 687.966 338.1Z"/><path d="M674.158 354.408C674.158 356.981 672.073 359.066 669.5 359.066 666.927 359.066 664.842 356.981 664.842 354.408 664.842 351.836 666.927 349.75 669.5 349.75 672.073 349.75 674.158 351.836 674.158 354.408Z"/></g></g></g><g clip-path="url(#clip4)"><g clip-path="url(#clip5)"><g clip-path="url(#clip6)"><path d="M759.498 341.638 764.483 336.653C765.016 336.119 765.886 336.117 766.422 336.653 766.961 337.192 766.958 338.057 766.422 338.592L760.453 344.561C759.92 345.094 759.049 345.097 758.514 344.561 758.456 344.503 758.404 344.442 758.359 344.377 758.349 344.368 758.339 344.359 758.33 344.349L755.863 341.882C755.33 341.349 755.326 340.477 755.862 339.941 756.401 339.402 757.266 339.406 757.802 339.942L759.498 341.638ZM743.462 314.809C743.462 312.153 745.603 310 748.265 310L773.735 310C776.388 310 778.538 312.153 778.538 314.809L778.538 365.191C778.538 367.847 776.397 370 773.735 370L748.265 370C745.612 370 743.462 367.847 743.462 365.191L743.462 314.809ZM747.09 317.2 774.91 317.2 774.91 360.4 747.09 360.4 747.09 317.2ZM757.976 363.999C757.976 363.337 758.513 362.8 759.171 362.8L762.829 362.8C763.489 362.8 764.024 363.332 764.024 363.999L764.024 366.401C764.024 367.063 763.487 367.6 762.829 367.6L759.171 367.6C758.511 367.6 757.976 367.068 757.976 366.401L757.976 363.999ZM761 350.615C766.608 350.615 771.154 346.069 771.154 340.462 771.154 334.854 766.608 330.308 761 330.308 755.392 330.308 750.846 334.854 750.846 340.462 750.846 346.069 755.392 350.615 761 350.615Z" fill-rule="evenodd"/></g></g></g></g></svg>