<?xml version="1.0" encoding="UTF-8"?>
<!DOCTYPE svg PUBLIC "-//W3C//DTD SVG 1.1//EN" "http://www.w3.org/Graphics/SVG/1.1/DTD/svg11.dtd">
<!-- Creator: CorelDRAW 2018 (64 Bit) -->
<svg xmlns="http://www.w3.org/2000/svg" xml:space="preserve" width="100%" height="100%" version="1.1" shape-rendering="geometricPrecision" text-rendering="geometricPrecision" image-rendering="optimizeQuality" fill-rule="evenodd" clip-rule="evenodd"
viewBox="0 0 2336.46 2456.12"
 xmlns:xlink="http://www.w3.org/1999/xlink">
 <g id="Ebene_x0020_1">
  <metadata id="CorelCorpID_0Corel-Layer"/>
  <g id="bikesharing">
   <path fill="#0A2737" d="M727.21 1326.46c0,-19.94 58.27,-113.52 67.03,-119.94 33.34,8.9 84.67,89.38 84.67,151.69 -31.59,0 -57.25,-4.73 -84.9,-6.82 -26.53,-2.01 -66.8,2.02 -66.8,-24.93zm-95.25 38.81c0,29.79 7.26,32.6 41.98,35.63l204.97 17.29c-8.41,101.09 -110.39,186.97 -222.25,186.97 -196.05,0 -296.85,-242 -157.88,-380.13 48.91,-48.62 96.35,-67.9 168.46,-67.9 29.38,0 47.46,8.73 70.56,14.11 -2.01,24.15 -105.84,172.76 -105.84,194.03zm956.04 -190.5c37.76,-8.8 28.96,-17.64 95.25,-17.64 119.33,0 218.73,103.37 218.73,222.25 0,224.93 -302.27,320.62 -424.5,103.47 -40.04,-71.14 -28.59,-181.89 24.97,-241.94 9.19,-10.31 18.55,-23.58 32.63,-27.34 2.67,11.44 12.77,31.56 17.54,42.43l36.54 83.42c12.78,25.87 19.53,38.29 72.92,25.85 3.84,-18.11 -3.29,-26.53 -12.92,-47.05l-61.16 -143.45zm-712.62 -95.25c29.12,0 33.93,25.53 52.92,63.5l76.43 149.34c50.7,101.4 22.61,72.91 -65.85,72.91 0,-84.09 -36.44,-143.11 -89.06,-196.69 -8.41,-8.56 -12.08,-15.37 -23.83,-18.51 1.63,-6.97 33.63,-70.55 49.39,-70.55zm232.84 254c-22,0 -37.88,-36.65 -50.58,-62.31 -16.85,-34.03 -111.7,-212.75 -111.7,-234.03 0,-11.4 12.8,-17.64 24.69,-17.64l455.09 0c66.57,0 3.85,43.88 -7.88,55.62l-255.88 223.91c-10.79,10.81 -35.12,34.45 -53.74,34.45zm56.44 -493.9c0,40.42 19.32,35.34 63.5,35.28 29.48,-0.04 143.22,-6.54 159.82,9.52 0.13,0.11 55.63,75.15 5.99,75.15l-469.2 0c-31.64,0 -35.2,-29.52 -51.06,-54.95 -8.69,-13.93 -9.13,-10.11 -5.38,-26.19 54.73,0 116.41,11.26 116.41,-31.75 0,-17.06 -11.15,-28.22 -28.22,-28.22l-229.31 0c-34.54,0 -44.21,55.99 10.63,59.93 27.8,2 43.16,-4.77 59.32,11.23 6.25,6.17 46.47,84.48 46.47,94.64 0,19.81 -23.15,53.21 -31.55,67.23l-39.01 63.3c-23.16,-5.39 -38.9,-13.49 -66.02,-18.64 -75.53,-14.34 -146.65,5.36 -207.04,45.44 -208.74,138.53 -137.86,485.92 135.38,509.55 42.82,3.7 77.76,-0.81 113.47,-13.75 16.38,-5.94 31.67,-12.2 46.54,-20.49 57.65,-32.13 100.76,-82 124.37,-143.74 3.38,-8.85 5.87,-16.43 8.05,-23.7 11.21,-37.41 -5.74,-23.91 113.47,-17.27 43.53,2.43 57.28,8.36 83.72,-18.38l232.78 -204.67c10.69,-10.86 17.68,-14.13 28.26,-24.65 12.52,-12.45 78.91,-73.22 92.59,-73.22 18.3,0 21.59,26.27 28.22,38.8 -64.92,43.48 -109.36,128.45 -109.36,229.31 0,98.57 67.92,205.16 157.66,244.51 78.7,34.5 169.98,39.21 247.85,-1.28 205.3,-106.76 194.59,-374.58 35.48,-479.61 -68.99,-45.54 -135.13,-63.59 -220.8,-44.38 -22.5,5.05 -38.57,11.67 -57.91,16.17 -1.13,-13.57 -93.64,-221.09 -103.82,-245.43 -14.08,-33.66 -18.74,-54.43 -65.52,-54.43 -36.58,0 -176.91,-3.03 -204.36,3.78 -9.53,2.37 -21.42,9.34 -21.42,20.91z"/>
   <path fill="#0A2737" d="M261.54 388.06c25.88,0 28.42,-21.69 33.86,-43.75 4.95,-20.13 13.88,-42.25 15.53,-62.08l10.58 0c0,37.42 -44.47,186.3 -35.56,204.6 9.57,19.66 22.75,17.65 35.56,17.65l0 148.17c0,52.83 59.98,48.88 59.98,10.58l0 -158.75 21.16 0 0 158.75c0,38.3 59.98,42.25 59.98,-10.58l0 -148.17c28.31,0 43.11,-12.1 35.51,-42.27 -4.76,-18.87 -8.38,-37.88 -12.86,-58l-22.65 -121.98 10.58 0c1.65,19.83 10.58,41.95 15.53,62.08 5.44,22.06 7.98,43.75 33.86,43.75 31.45,0 31.76,-27.62 26.23,-50.75 -5.79,-24.22 -12.89,-48.02 -20.5,-71.4 -49.15,-150.86 9.06,-124.79 -213.87,-124.79 -29.7,0 -31.71,31.09 -38.04,53.68 -7.96,28.34 -49.62,151.9 -43.37,172.16 3.92,12.71 12.51,21.1 28.49,21.1z"/>
   <path fill="#0A2737" d="M1813.78 2151.97c25.88,0 28.42,-21.69 33.86,-43.75 4.95,-20.13 13.88,-42.25 15.53,-62.08l10.58 0c0,18.26 -17.11,96.17 -22.02,119.09 -3.52,16.44 -8.41,41.22 -12.69,58.05 -8.08,31.77 3.67,45.11 34.71,45.11l0 148.17c0,52.83 59.98,48.88 59.98,10.58l0 -158.75 21.16 0 0 158.75c0,38.3 59.98,42.25 59.98,-10.58l0 -148.17c14.19,0 23.59,2.2 34.23,-15.4 8.7,-14.39 -5.48,-57.46 -11.58,-84.87l-22.65 -121.98 10.58 0c1.65,19.83 10.58,41.95 15.53,62.08 5.44,22.06 7.98,43.75 33.86,43.75 55.36,0 16.31,-83.85 5.53,-121.94 -7.21,-25.47 -13.35,-46.18 -20.41,-71.32 -19.45,-69.31 -5.27,-53.68 -193.26,-53.68 -35.75,0 -39.45,65.86 -58.65,124.79 -12.63,38.77 -48.66,122.15 5.73,122.15z"/>
   <path fill="#0A2737" d="M1813.78 388.06c34.9,0 35.88,-61.62 42.92,-112.3 1.95,-14.01 6.47,-30.26 6.47,-46.45l10.58 0 0 363.37c0,24.01 -8.06,98.78 24.7,98.78 11.75,0 35.28,1.62 35.28,-28.23l0 -222.25 21.16 0 0 222.25c0,36.66 56.4,42.95 59.97,-7.06 3.72,-52.06 0.01,-365.63 0.01,-426.86l10.58 0 13.07 89.23c4.98,30.2 3.97,69.52 36.32,69.52 50.32,0 22.95,-76.93 13.78,-123.14 -4.6,-23.22 -8.97,-48.37 -13.51,-71.16 -5.01,-25.19 -4.64,-52.64 -35.55,-52.64l-190.5 0c-29.88,0 -30.6,27.58 -35.57,52.62l-28.27 148.33c-2.91,16.24 -2.6,45.99 28.56,45.99z"/>
   <path fill="#0A2737" d="M261.54 2151.97c34.9,0 35.88,-61.62 42.92,-112.3 1.95,-14.01 6.47,-30.26 6.47,-46.45l10.58 0 0 363.37c0,24.01 -8.06,98.78 24.7,98.78 11.75,0 35.28,1.62 35.28,-28.23l0 -222.25 21.16 0 0 222.25c0,36.66 56.4,42.95 59.97,-7.06 3.72,-52.06 0.01,-365.63 0.01,-426.86l10.58 0 13.07 89.23c4.98,30.2 3.96,69.52 36.32,69.52 12.46,0 22.2,-6.58 26.71,-15.9 9.29,-19.26 -8.45,-84.64 -12.93,-107.24 -4.61,-23.22 -8.97,-48.37 -13.51,-71.16 -5.01,-25.19 -4.64,-52.64 -35.55,-52.64l-190.5 0c-29.88,0 -30.6,27.58 -35.58,52.62l-28.26 148.33c-2.91,16.24 -2.6,45.99 28.56,45.99z"/>
   <path fill="#0A2737" d="M1471.58 2208.42c10.16,19.19 24.55,29.83 35.28,45.86 -156.03,104.48 -350.87,133.78 -537.54,78.92 -57.6,-16.93 -130.53,-59.75 -136.27,-61.28 5.18,-22.23 26.9,-31.24 31.75,-49.39 -11.91,-0.27 -24.02,-3.6 -36.77,-5.57l-118.46 -19.13c1.23,14.73 6.78,24.14 12.11,37.29l40.81 110.88c12.4,-3.31 31.52,-31.45 38.81,-42.33 7.15,1.67 74.27,38.97 106.81,51.94 209.15,83.38 441.61,54.55 626.97,-69.58 7.81,14.75 8.63,12.44 18.13,24.21 8.62,10.68 8.71,13.64 20.68,21.65l26.2 -72.58c6.2,-16.19 25.54,-61.47 26.72,-75.59 -21.54,0 -53.98,7.81 -76.61,11.59 -21.69,3.62 -55.98,11.22 -78.62,13.11z"/>
   <path fill="#0A2737" d="M2141.87 931.35c19.19,-10.16 29.83,-24.55 45.86,-35.28 104.48,156.03 133.78,350.87 78.92,537.54 -7.8,26.54 -18.09,46.73 -28.04,70.74 -10.66,25.72 -30.32,54.6 -33.24,65.53 -22.23,-5.18 -31.24,-26.9 -49.39,-31.75 -0.27,11.91 -3.6,24.02 -5.57,36.77l-19.13 118.46c21.35,-1.78 114.82,-45.15 148.17,-52.92 -3.31,-12.4 -31.45,-31.52 -42.33,-38.81 3.48,-14.92 10.93,-22.92 17.64,-35.27 7.31,-13.48 11.72,-18.8 18.15,-34.77l30.79 -78.57c60.72,-181.96 35.13,-384.92 -61.01,-548.41 -7.41,-12.59 -18.41,-25 -19.68,-40.29 10.35,-2.77 36.02,-25.85 42.33,-35.28 -14.29,-3.33 -22.22,-7.66 -36.6,-12.79 -23.92,-8.54 -97.73,-38.97 -111.57,-40.13 0,21.54 7.81,53.98 11.59,76.61 3.62,21.69 11.22,55.98 13.11,78.62z"/>
   <path fill="#0A2737" d="M797.77 179.92c-2.77,-10.35 -25.85,-36.02 -35.28,-42.33 -6.95,29.81 -51.25,128.14 -52.92,148.17 31.26,0 115.5,-21.39 155.23,-24.7 -10.16,-19.19 -24.55,-29.83 -35.28,-45.86 156.03,-104.48 350.87,-133.78 537.54,-78.92 57.6,16.93 130.53,59.75 136.27,61.28 -5.18,22.23 -26.9,31.24 -31.75,49.39l155.23 24.7c-1.78,-21.35 -45.15,-114.82 -52.92,-148.17 -12.4,3.31 -31.52,31.45 -38.81,42.33 -14.92,-3.48 -22.92,-10.93 -35.27,-17.64 -43.94,-23.84 -64.5,-32.64 -113.34,-48.94 -137.39,-45.85 -288.53,-42.53 -425.14,4.36 -14.19,4.87 -31.33,10.86 -43.6,16.38l-79.67 40.27c-12.59,7.41 -25,18.41 -40.29,19.68z"/>
   <path fill="#0A2737" d="M56.93 829.04c3.19,11.97 9.71,13.45 18.42,20.39 8.02,6.4 16.03,13.14 23.91,18.42 -4.32,18.52 -25.19,43.7 -35.79,70.04l-30.79 78.57c-46.04,137.98 -42.37,287.96 4.37,425.14 16.3,47.86 31.11,79.85 56.64,123.27 7.41,12.59 18.41,25 19.68,40.29 -10.35,2.77 -36.02,25.85 -42.33,35.28 29.81,6.95 128.14,51.25 148.17,52.92 0,-31.26 -21.39,-115.5 -24.7,-155.23 -19.19,10.16 -29.83,24.55 -45.86,35.28 -104.48,-156.03 -133.78,-350.87 -78.92,-537.54 7.8,-26.54 18.09,-46.73 28.04,-70.74 10.66,-25.72 30.32,-54.6 33.24,-65.53 22.23,5.18 31.24,26.9 49.39,31.75 0.27,-11.91 3.6,-24.02 5.57,-36.77l19.13 -118.46c-21.35,1.78 -114.82,45.15 -148.17,52.92z"/>
   <path fill="#0A2737" d="M328.57 59.98c0,88.52 127,88.52 127,0 0,-28.46 -25.89,-59.98 -52.92,-59.98l-21.16 0c-27.03,0 -52.92,31.52 -52.92,59.98z"/>
   <path fill="#0A2737" d="M1880.81 59.98c0,88.52 127,88.52 127,0 0,-28.46 -25.89,-59.98 -52.92,-59.98l-21.16 0c-27.03,0 -52.92,31.52 -52.92,59.98z"/>
   <path fill="#0A2737" d="M328.57 1823.89c0,88.52 127,88.52 127,0 0,-28.46 -25.89,-59.98 -52.92,-59.98l-21.16 0c-27.03,0 -52.92,31.52 -52.92,59.98z"/>
   <path fill="#0A2737" d="M1880.81 1823.89c0,88.52 127,88.52 127,0 0,-28.46 -25.89,-59.98 -52.92,-59.98l-21.16 0c-27.03,0 -52.92,31.52 -52.92,59.98z"/>
  </g>
 </g>
</svg>
