<svg xmlns="http://www.w3.org/2000/svg" xmlns:xlink="http://www.w3.org/1999/xlink" width="100" height="100" viewBox="0 0 100 100"><g><g transform="translate(50 50) scale(0.69 0.69) rotate(0) translate(-50 -50)" style="fill:#000000"><svg fill="#000000" xmlns="http://www.w3.org/2000/svg" xmlns:xlink="http://www.w3.org/1999/xlink" xmlns:serif="http://www.serif.com/" viewBox="0 0 95 95" version="1.1" xml:space="preserve" style="" x="0px" y="0px" fill-rule="evenodd" clip-rule="evenodd" stroke-linejoin="round" stroke-miterlimit="1.41421"><g transform="matrix(0.414046,0,0,0.413116,-5.55785,-4.29045)"><path d="M70.67,187.74L68.8,187.74C44.138,186.681 24.156,166.663 23.14,142C23.113,141.349 23.1,140.697 23.1,140.045C23.1,113.965 44.56,92.505 70.64,92.505C83.612,92.505 96.035,97.814 105,107.19C110.425,112.845 114.384,119.743 116.53,127.28C117.687,131.479 118.279,135.814 118.29,140.17C118.278,142.576 118.105,144.978 117.77,147.36C116.633,154.618 113.844,161.519 109.62,167.53C100.706,180.171 86.178,187.717 70.71,187.74L70.67,187.74ZM70.67,97.6C70.665,97.6 70.661,97.6 70.656,97.6C47.309,97.6 28.096,116.812 28.096,140.16C28.096,140.723 28.108,141.287 28.13,141.85C29.066,163.901 46.949,181.779 69,182.71C83.418,183.263 97.172,176.457 105.48,164.66C109.259,159.298 111.757,153.139 112.78,146.66C113.084,144.517 113.241,142.355 113.25,140.19C113.24,136.291 112.712,132.41 111.68,128.65C108.618,117.854 101.431,108.683 91.68,103.13C85.276,99.503 78.04,97.597 70.68,97.6L70.67,97.6Z" style="" fill-rule="nonzero"></path></g><g transform="matrix(0.414046,0,0,0.413116,-5.55785,-4.29045)"><path d="M174.89,187.64L101.94,187.64C97.044,187.633 92.653,184.538 91,179.93C90.602,178.8 91.066,177.535 92.1,176.93C97.397,173.863 101.961,169.675 105.47,164.66C105.937,163.984 106.708,163.579 107.53,163.58L174.88,163.58C181.298,163.574 186.588,168.842 186.61,175.26L186.61,175.92C186.599,182.345 181.315,187.629 174.89,187.64ZM96.66,180C97.894,181.674 99.86,182.658 101.94,182.64L174.89,182.64C178.576,182.635 181.609,179.606 181.62,175.92L181.62,175.26C181.598,171.585 178.565,168.574 174.89,168.58L108.82,168.58C105.479,173.08 101.361,176.948 96.66,180Z" style="" fill-rule="nonzero"></path></g><g transform="matrix(0.414046,0,0,0.413116,-5.55785,-4.29045)"><path d="M174.89,168.58L107.54,168.58C106.183,168.567 105.074,167.447 105.074,166.09C105.074,165.57 105.237,165.063 105.54,164.64C109.31,159.275 111.801,153.117 112.82,146.64C113.007,145.428 114.063,144.525 115.29,144.53L174.93,144.53C181.346,144.519 186.638,149.784 186.66,156.2L186.66,156.86C186.649,163.293 181.353,168.58 174.92,168.58C174.91,168.58 174.9,168.58 174.89,168.58ZM112.08,163.58L174.89,163.58C178.578,163.58 181.615,160.548 181.62,156.86L181.62,156.2C181.598,152.527 178.563,149.519 174.89,149.53L117.34,149.53C116.334,154.46 114.559,159.201 112.08,163.58Z" style="" fill-rule="nonzero"></path></g><g transform="matrix(0.414046,0,0,0.413116,-5.55785,-4.29045)"><path d="M174.89,149.53L115.25,149.53C114.529,149.527 113.844,149.213 113.37,148.67C112.884,148.125 112.665,147.392 112.77,146.67C113.081,144.51 113.241,142.332 113.25,140.15C113.24,136.251 112.712,132.37 111.68,128.61C111.619,128.392 111.588,128.166 111.588,127.94C111.588,126.574 112.712,125.45 114.078,125.45C114.082,125.45 114.086,125.45 114.09,125.45L174.94,125.45C181.342,125.455 186.609,130.718 186.62,137.12L186.62,137.78C186.62,137.783 186.62,137.787 186.62,137.79C186.62,144.227 181.327,149.525 174.89,149.53ZM118.05,144.53L174.89,144.53C178.58,144.525 181.615,141.49 181.62,137.8L181.62,137.14C181.615,133.479 178.601,130.47 174.94,130.47L117.26,130.47C117.919,133.661 118.254,136.911 118.26,140.17C118.25,141.57 118.19,143 118.05,144.53Z" style="" fill-rule="nonzero"></path></g><g transform="matrix(0.414046,0,0,0.413116,-5.55785,-4.29045)"><path d="M174.89,130.47L114.09,130.47C112.974,130.474 111.987,129.725 111.69,128.65C109.757,121.9 106.207,115.721 101.35,110.65C100.904,110.185 100.655,109.565 100.655,108.92C100.655,107.55 101.78,106.423 103.15,106.42L174.89,106.42C181.323,106.425 186.615,111.717 186.62,118.15L186.62,118.75C186.609,125.179 181.319,130.465 174.89,130.47ZM115.94,125.47L174.89,125.47C178.58,125.465 181.615,122.43 181.62,118.74L181.62,118.14C181.615,114.45 178.58,111.415 174.89,111.41L108.57,111.41C111.784,115.659 114.275,120.409 115.94,125.47Z" style="" fill-rule="nonzero"></path></g><g transform="matrix(0.414046,0,0,0.413116,-5.55785,-4.29045)"><path d="M174.89,111.41L103.15,111.41C102.465,111.412 101.809,111.13 101.34,110.63C98.493,107.673 95.237,105.141 91.67,103.11C91.08,102.774 90.653,102.209 90.49,101.55C90.337,100.938 90.26,100.31 90.26,99.68L90.26,99C90.282,92.575 95.575,87.3 102,87.3L174.9,87.3C181.318,87.311 186.598,92.582 186.62,99L186.62,99.65C186.62,99.657 186.62,99.663 186.62,99.67C186.62,106.107 181.327,111.405 174.89,111.41ZM104.2,106.41L174.89,106.41C178.58,106.405 181.615,103.37 181.62,99.68L181.62,99C181.615,95.31 178.58,92.275 174.89,92.27L102,92.27C98.306,92.27 95.265,95.306 95.26,99L95.26,99.4C98.514,101.365 101.516,103.719 104.2,106.41Z" style="" fill-rule="nonzero"></path></g><g transform="matrix(0.414046,0,0,0.413116,-5.55785,-4.29045)"><path d="M174.59,92.32L102.27,92.32C95.671,92.32 90.24,86.889 90.24,80.29C90.24,73.691 95.671,68.26 102.27,68.26L174.59,68.26C181.189,68.26 186.62,73.691 186.62,80.29C186.62,86.889 181.189,92.32 174.59,92.32C174.59,92.32 174.59,92.32 174.59,92.32ZM102.27,73.26C98.413,73.26 95.24,76.433 95.24,80.29C95.24,84.147 98.413,87.32 102.27,87.32L174.59,87.32C178.447,87.32 181.62,84.147 181.62,80.29C181.62,76.433 178.447,73.26 174.59,73.26L102.27,73.26Z" style="" fill-rule="nonzero"></path></g><g transform="matrix(0.414046,0,0,0.413116,-5.55785,-4.29045)"><path d="M220.76,185.75C219.139,185.735 217.537,185.395 216.05,184.75C213.115,183.501 210.796,181.131 209.61,178.17L182.61,111.09C182.033,109.66 181.737,108.132 181.737,106.59C181.737,99.989 187.169,94.557 193.77,94.557C198.668,94.557 203.098,97.547 204.93,102.09L231.93,169.17C232.512,170.604 232.812,172.137 232.812,173.685C232.812,178.585 229.811,183.014 225.26,184.83C223.833,185.421 222.305,185.734 220.76,185.75ZM193.76,99.6C192.865,99.598 191.978,99.771 191.15,100.11C188.489,101.166 186.732,103.753 186.732,106.617C186.732,107.523 186.908,108.421 187.25,109.26L214.25,176.34C215.318,178.985 217.898,180.725 220.75,180.725C224.596,180.725 227.76,177.561 227.76,173.715C227.76,172.815 227.587,171.924 227.25,171.09L200.25,104.01C199.177,101.361 196.598,99.614 193.74,99.6L193.76,99.6Z" style="" fill-rule="nonzero"></path></g><g transform="matrix(1.17201,0,0,1.17201,-4.26985,-7.79943)"><path d="M25.186,46.165C23.984,46.165 22.976,46.455 22.16,47.034C21.674,47.378 21.233,47.864 20.84,48.494C20.439,49.145 20.203,49.764 20.132,50.351L27.451,50.351L27.161,51.789L19.96,51.789C19.953,51.939 19.949,52.082 19.949,52.218C19.949,52.769 19.953,53.098 19.96,53.205L26.871,53.205L26.571,54.643L20.185,54.643C20.486,56.282 21.208,57.444 22.353,58.131C23.176,58.625 24.067,58.872 25.025,58.872C26.363,58.872 27.408,58.521 28.159,57.82L28.159,60.031C27.265,60.446 26.278,60.653 25.197,60.653C21.963,60.653 19.778,59.308 18.64,56.618C18.411,56.074 18.214,55.416 18.05,54.643L16.408,54.643L16.708,53.205L17.835,53.205C17.814,52.905 17.803,52.579 17.803,52.229C17.803,52.086 17.806,51.939 17.814,51.789L16.408,51.789L16.708,50.351L17.953,50.351C18.397,48.018 19.552,46.344 21.42,45.328C22.571,44.698 23.841,44.384 25.229,44.384C26.56,44.384 27.68,44.673 28.589,45.253L28.159,47.249C27.286,46.526 26.295,46.165 25.186,46.165Z" style="" fill-rule="nonzero"></path></g></svg></g></g></svg>