<?xml version="1.0" encoding="UTF-8"?>
<!DOCTYPE svg PUBLIC "-//W3C//DTD SVG 1.1//EN" "http://www.w3.org/Graphics/SVG/1.1/DTD/svg11.dtd">
<!-- Creator: CorelDRAW 2018 (64 Bit) -->
<svg xmlns="http://www.w3.org/2000/svg" xml:space="preserve" width="100%" height="100%" version="1.1" shape-rendering="geometricPrecision" text-rendering="geometricPrecision" image-rendering="optimizeQuality" fill-rule="evenodd" clip-rule="evenodd"
viewBox="0 0 2978.11 1475.18"
 xmlns:xlink="http://www.w3.org/1999/xlink">
 <g id="Ebene_x0020_1">
  <metadata id="CorelCorpID_0Corel-Layer"/>
  <path fill="#0A2737" d="M702.04 1361.73c-74.7,0 -131.52,-40.79 -161.2,-99.86 -28.85,-57.42 -24.57,-128.03 11.5,-180.37 29.21,-42.39 82.08,-76.08 135.58,-76.08l24.7 0c87.15,0 165.81,78.3 165.81,179.92 0,95.11 -81.38,176.39 -176.39,176.39zm1580.46 -179.91c0,-91.66 80.92,-176.4 162.28,-176.4l35.28 0c76.57,0 158.75,82.18 158.75,158.76 0,63.72 -5.68,99.14 -55.51,149.1 -61.94,62.12 -173.47,68.21 -247.02,-5.33 -19.98,-19.98 -23.35,-26.18 -36.21,-51.98 -7.55,-15.18 -17.57,-51.89 -17.57,-74.15zm-1210.04 -617.37c0,20.75 3.61,38.01 25.54,48.54 21.09,10.13 431.55,4.37 464.82,4.37l931.35 0c82.3,0 45.05,-3.34 105.79,28.27 121.37,63.17 264.63,104.97 264.63,268.07 0,52.44 -2.13,212.05 -32.57,249.65 -14.76,18.22 -48.53,18.47 -76.79,18.47 0,-212.55 -222.81,-352.16 -409.19,-268.08 -14.43,6.5 -33.71,15.96 -45.94,24.62 -6.38,4.52 -13.22,9.69 -20.03,15.24 -8.15,6.64 -14.11,10.62 -21.46,17.35 -18.56,17 -50.32,61.46 -60.79,83.86 -17.36,37.17 -28.21,77.32 -28.21,127.01l-1174.76 0c-7.73,-92.87 -36.55,-154.75 -87.31,-205.51 -188.7,-188.69 -496.15,-50.14 -501.84,205.51l-194.03 0c-78.69,0 -108.06,-68.97 -97.82,-143.68l9.5 -272.73c0.03,-19.38 2.81,-22.69 3.67,-38.67l3.39 -162.41c0.85,-28.19 3.87,-29.62 3.62,-77.52l3.44 -116.51c0.53,-17.76 3.55,-19.53 3.78,-38.55 1.15,-92.99 -16.79,-218.86 109.23,-218.86l1425.23 0c13.84,0 44.4,81.67 50.89,97.28l114.86 255.56c7.15,15.91 17.2,35.56 21.23,52.86l-730.43 -0.17c-34.39,0.19 -59.8,18.5 -59.8,46.03zm737.31 -451.56c112.17,0 239.64,-13.58 322.22,34.09 9.19,5.31 11.78,8.52 20.69,14.58 50.76,34.55 95.46,83.61 133.85,130.74l86.15 111.41c13.37,17.74 82.94,102.61 86.21,114.88l-469.2 0 -44.68 -99.97c-16.49,-35.29 -29.41,-67.11 -45.86,-102.31l-89.38 -203.42zm-1809.77 973.67c0,88.05 52.8,165.41 133.56,194.53 61.65,22.23 220.15,13.62 296.83,13.62 25.82,48.78 37.37,79.22 93.69,121.51 104.66,78.59 247.67,78.63 352.39,0 51.86,-38.94 67.03,-71.15 93.68,-121.51l1224.15 0c3.24,38.83 64.36,99.35 92.79,122.41 106.36,86.3 275.86,73.99 377.38,-22.67 21.68,-20.64 59.12,-69.93 66.06,-99.74 91.17,0 170.76,0.76 215.2,-98.78 16.78,-37.58 21.17,-85.15 27.27,-131.49l5.11 -147.61c-2.48,-30.58 -1.89,-46.31 -6.7,-71.14 -7.46,-38.48 -24.09,-79.82 -44.71,-110.52 -14.55,-21.67 -18.65,-26.75 -36.53,-44.6 -101.73,-101.57 -236.96,-129.92 -289.36,-183.37l-262.68 -330c-20.75,-20.84 -21.22,-26.73 -40.02,-41.12l-40.8 -36.81c-83.86,-67.7 -142.6,-99.27 -260.56,-99.27l-1763.91 0c-88.4,0 -160.55,63.01 -189.57,138.52 -18.85,49.04 -11.71,89.38 -15.03,150.77l-13.61 314.48c-2.82,25.09 1.78,55.01 -1.03,80.11 -4.99,44.43 -13.6,375.06 -13.6,402.68z"/>
 </g>
</svg>
