<svg height='100px' width='100px'  fill="#000000" xmlns="http://www.w3.org/2000/svg" viewBox="0 0 64 64" x="0px" y="0px"><title>Schedule-table-timetable-school-kid-day</title><g data-name="Layer 3"><path d="M61,9H3a1,1,0,0,0-1,1V52a1,1,0,0,0,1,1H61a1,1,0,0,0,1-1V10A1,1,0,0,0,61,9Zm-1,6H50V11H60ZM26,11H36v4H26Zm-2,4H14V11H24Zm14-4H48v4H38ZM12,11v4H4V11ZM4,39V35h8v4Zm8,2v4H4V41ZM4,33V29h8v4Zm0-6V23h8v4Zm0-6V17h8v4ZM4,51V47h8v4Zm10,0V17H24V51Zm12,0V17H36V51Zm12,0V17H48V51Zm12,0V17H60V51Z"></path><path d="M17,20h4a1,1,0,0,0,0-2H17a1,1,0,0,0,0,2Z"></path><path d="M21,30H17a1,1,0,0,0,0,2h4a1,1,0,0,0,0-2Z"></path><path d="M21,42H17a1,1,0,0,0,0,2h4a1,1,0,0,0,0-2Z"></path><path d="M45,42H41a1,1,0,0,0,0,2h4a1,1,0,0,0,0-2Z"></path><path d="M21,48H17a1,1,0,0,0,0,2h4a1,1,0,0,0,0-2Z"></path><path d="M57,48H53a1,1,0,0,0,0,2h4a1,1,0,0,0,0-2Z"></path><path d="M57,30H53a1,1,0,0,0,0,2h4a1,1,0,0,0,0-2Z"></path><path d="M57,36H53a1,1,0,0,0,0,2h4a1,1,0,0,0,0-2Z"></path><path d="M29,26h4a1,1,0,0,0,0-2H29a1,1,0,0,0,0,2Z"></path><path d="M33,30H29a1,1,0,0,0,0,2h4a1,1,0,0,0,0-2Z"></path><path d="M33,36H29a1,1,0,0,0,0,2h4a1,1,0,0,0,0-2Z"></path><path d="M41,26h4a1,1,0,0,0,0-2H41a1,1,0,0,0,0,2Z"></path></g></svg>