<svg xmlns="http://www.w3.org/2000/svg" xmlns:xlink="http://www.w3.org/1999/xlink" width="100" height="100" viewBox="0 0 100 100"><g><g transform="translate(50 50) scale(0.69 0.69) rotate(0) translate(-50 -50)" style="fill:#000000"><svg fill="#000000" xmlns="http://www.w3.org/2000/svg" xmlns:xlink="http://www.w3.org/1999/xlink" viewBox="0 0 100 100" version="1.1" xml:space="preserve" style="" x="0px" y="0px" fill-rule="evenodd" clip-rule="evenodd" stroke-linejoin="round" stroke-miterlimit="1.41421"><path d="M76,35.9987l-0.202152,0.00372169c-0.484339,0.0132948 -0.966211,0.0644548 -1.44181,0.157641c-1.64634,0.322578 -3.16823,1.11076 -4.54207,2.05195c-0.261976,0.179476 -0.519522,0.365393 -0.773012,0.556657c-1.47415,1.11228 -2.8152,2.39519 -4.08083,3.73697c-1.51572,1.60692 -2.92703,3.3101 -4.29329,5.04482l-1.9165,2.50925l-0.90423,1.1839c-1.33661,1.7936 -2.65924,3.59755 -3.99364,5.39278c-0.99784,1.33791 -2.00197,2.67113 -3.03011,3.98598l-0.811953,1.00659l-1.56272,1.93733c-0.607417,0.726666 -1.22561,1.44438 -1.85742,2.14997c-0.491475,0.548863 -0.991138,1.09043 -1.50038,1.62286c-3.00611,3.14298 -6.37962,6.0118 -10.2768,7.98947c-0.488511,0.247904 -0.984422,0.48124 -1.48721,0.698735c-0.662565,0.286609 -1.33713,0.545591 -2.02194,0.774047c-0.91302,0.304585 -1.84423,0.554831 -2.78763,0.745738c-0.907861,0.183714 -1.82681,0.312471 -2.75029,0.384405c-0.469527,0.0365736 -0.939726,0.0566479 -1.41054,0.0658131c-0.171054,0.0020002 -0.1707,0.00205006 -0.341921,0.00271607c0,0 -8.14184,0 -12.0136,0c-0.530433,1.24972e-06 -1.03914,-0.210712 -1.41422,-0.585784c-0.375074,-0.375072 -0.585788,-0.88378 -0.585789,-1.41421c4.52438e-12,-2.65958 4.52438e-12,-7.33353 4.52438e-12,-9.99544c2.80919e-06,-0.531442 0.211519,-1.04103 0.587854,-1.41627c0.376335,-0.375237 0.88654,-0.585263 1.41798,-0.583713c4.07207,0.0171449 8.11871,0.0724149 12.2,-0.00703424c0.135546,-0.00369657 0.270824,-0.00999767 0.406124,-0.0189472c0.401252,-0.0296981 0.799776,-0.0843329 1.1936,-0.167095c1.6746,-0.351921 3.21905,-1.1696 4.61397,-2.13961c0.319466,-0.222152 0.632432,-0.453599 0.939585,-0.692468c1.48662,-1.15613 2.84087,-2.47713 4.12087,-3.85574c1.51987,-1.63695 2.93831,-3.36609 4.31375,-5.12514l1.48124,-1.95391l1.70515,-2.24927c1.09302,-1.47604 2.18168,-2.9553 3.27687,-4.42972c0.996042,-1.33659 1.99807,-2.66872 3.02367,-3.98284l0.736541,-0.91253l1.83295,-2.27091c0.607647,-0.724043 1.22624,-1.43896 1.85866,-2.14149c0.491812,-0.54634 0.991929,-1.08524 1.50175,-1.61482c3.01034,-3.12703 6.39419,-5.97365 10.3029,-7.91061c0.490464,-0.243048 0.988342,-0.471219 1.49301,-0.68321c0.665302,-0.279465 1.34251,-0.530702 2.02975,-0.750831c0.916497,-0.293562 1.85079,-0.531715 2.79661,-0.709629c1.37004,-0.257713 2.75975,-0.383347 4.15345,-0.388807l0.0137099,0l4.07065e-08,-8l17,15l-17,15l4.07129e-08,-8.00129ZM76,64l4.07064e-08,-7.99999l17,15l-17,15l4.07063e-08,-7.99996l-0.0136094,0c-1.39647,-0.00543137 -2.78898,-0.130661 -4.16198,-0.387636c-0.94793,-0.177418 -1.88442,-0.414954 -2.80321,-0.70785c-0.688972,-0.219633 -1.36796,-0.470355 -2.03511,-0.749296c-0.506166,-0.211633 -1.00556,-0.439461 -1.49757,-0.682187c-3.82539,-1.88721 -7.1536,-4.64358 -10.1188,-7.68221c-0.514277,-0.527014 -1.01862,-1.06369 -1.51441,-1.60812l-1.23747,-1.41108l1.35555,-1.68534c1.04754,-1.33966 2.07075,-2.69794 3.08742,-4.0611c1.21592,-1.63584 2.42222,-3.2788 3.63761,-4.91503l0.59959,-0.769517c1.32527,1.64377 2.65945,3.20487 4.09157,4.67248c1.21127,1.24129 2.4954,2.42279 3.90174,3.44121c1.50867,1.09253 3.1976,2.0246 5.04289,2.38433c0.526754,0.102688 1.0609,0.15472 1.59738,0.161027l0.068382,0.000265961ZM38.7278,46.767l-2.47583,-2.95868c-1.43524,-1.62045 -2.95465,-3.1822 -4.64109,-4.54381c-0.308485,-0.249066 -0.622785,-0.490983 -0.943626,-0.723935c-0.251453,-0.182571 -0.50693,-0.359629 -0.766781,-0.530046c-1.35053,-0.885705 -2.8425,-1.61002 -4.44521,-1.886c-0.458593,-0.0789655 -0.922126,-0.118722 -1.38731,-0.124181l-0.0816265,-0.000319913c0,0 -8.12052,0 -11.9863,-7.10543e-15c-1.10456,-6.8311e-06 -1.99998,-0.89543 -1.99999,-1.99999c2.16591e-11,-2.66142 2.16591e-11,-7.33999 2.16591e-11,-10.0009c-4.1095e-06,-1.10413 0.894733,-1.99938 1.99886,-2.00001c4.05955,-0.00338155 8.11911,-0.0143318 12.1786,0.00157833c0.177028,0.00207733 0.353907,0.00553656 0.530881,0.0103851c0.468368,0.0164997 0.935948,0.0439064 1.4026,0.0877558c0.91784,0.0862457 1.83025,0.229106 2.73077,0.426317c0.881255,0.192991 1.75096,0.438007 2.60428,0.730644c0.680511,0.233374 1.35057,0.497003 2.00852,0.787937c0.548986,0.242755 1.08954,0.504447 1.62108,0.783324c3.57714,1.87677 6.70654,4.50455 9.51389,7.38713c0.513174,0.526927 1.01644,1.06347 1.51119,1.60772l1.31186,1.49833l-1.28526,1.60166c-1.04451,1.33835 -2.06514,2.69494 -3.07954,4.05618c-1.21382,1.63413 -2.41855,3.27498 -3.6329,4.90871l-0.687088,0.880233Z" style="" fill="#000000"></path></svg></g></g></svg>