<?xml version="1.0" encoding="UTF-8"?>
<!DOCTYPE svg PUBLIC "-//W3C//DTD SVG 1.1//EN" "http://www.w3.org/Graphics/SVG/1.1/DTD/svg11.dtd">
<!-- Creator: CorelDRAW 2018 (64 Bit) -->
<svg xmlns="http://www.w3.org/2000/svg" xml:space="preserve" width="100%" height="100%" version="1.1" shape-rendering="geometricPrecision" text-rendering="geometricPrecision" image-rendering="optimizeQuality" fill-rule="evenodd" clip-rule="evenodd"
viewBox="0 0 2978.39 1017.03"
 xmlns:xlink="http://www.w3.org/1999/xlink">
 <g id="Ebene_x0020_1">
  <metadata id="CorelCorpID_0Corel-Layer"/>
  <path fill="#0A2737" d="M2483.99 924.34c-42.22,0 -53.47,2.4 -91.8,-17.57 -159.67,-83.18 -79.47,-306.99 63.57,-306.99 58.87,0 87.71,8.67 129.68,50.24 62.14,61.55 61.37,152.96 2.44,222.99 -19.28,22.91 -63.67,51.33 -103.89,51.33zm-1795.67 0c-57.03,0 -88.55,-5.35 -131.48,-48.44 -88.66,-88.99 -46.16,-276.12 124.43,-276.12 83.73,0 153.12,70.25 157.63,159.51 4.23,83.69 -73.6,165.05 -150.58,165.05zm359.84 -617.37c0,61.69 54.28,49.39 102.31,49.39l1001.91 -0.01c85.63,-0.31 400.5,54.21 498.91,72.6 89.4,16.72 112.77,26.66 187.64,59.31 28.89,12.6 25.5,39.93 31.57,77.79 3.77,23.53 6.65,39.69 10.16,63.92 6.4,44.17 9.02,86.73 9.02,135.62l-120.89 20.22c-19.19,2.41 -27.9,0.51 -44.91,4.48 0,-76.25 -14.74,-143.38 -64.34,-196.73 -128.27,-137.96 -341.17,-103.38 -421.41,56.7 -25.92,51.69 -25.79,84 -25.79,140.03 -59.32,0 -106.25,3.52 -165.8,3.52l-1037.18 0c-32.09,0 -49.66,-3.52 -81.14,-3.52 0,-54.21 0.94,-88.07 -23.45,-138.84 -10.7,-22.28 -33.35,-53.66 -49.81,-70.13 -72.93,-72.98 -202.9,-98.59 -295.71,-47.11 -53.98,29.94 -100.25,78.47 -123.55,137.51 -13.35,33.85 -15.49,68.97 -15.49,115.04l-184.96 -26.71c-32.55,-5.41 -57.38,-10.92 -88.18,-17.65 -68.57,-14.98 -54.95,-17.47 -54.95,-167.31 0,-23.41 0.07,-42.62 2.57,-60.94 5.16,-37.86 2.99,-149.95 18.6,-182.48l162.39 -14c54.91,-4.54 91.96,-26.21 134.47,-41.92 166.23,-61.4 372.07,-155.19 542.66,-169.96 115.72,-10.02 231.18,-14.01 356.41,-14.01 29.85,0 43.01,56.24 64.72,101.09l30.53 71.77 -296.49 -0.15c-15.17,0.12 -31.08,2.32 -40.92,8.46 -9.03,5.63 -18.9,20.73 -18.9,34.02zm384.53 -208.14c18.61,-0.41 17.85,-5.68 40.77,-2.12l131.47 9.8c54.1,5.92 108.94,15.16 154.38,32.6 78.69,30.23 145.95,66.73 217.76,106.8l30.66 18.73 -500.95 0c-25.28,-47.77 -51.04,-114.24 -74.09,-165.81zm-1432.29 455.09c0,62.75 -4.26,156.82 15.24,214.07 12.06,35.4 39.01,40.87 74.28,52.72 79.42,26.7 232.9,46.81 323.91,57.1 55.02,6.22 32.71,14.98 72.48,54.52 66.12,65.74 111.79,83.74 205.54,83.74 48.51,0 102.2,-25.31 130.59,-45.81 60.35,-43.59 62.35,-84.72 91.67,-84.72l1312.34 0c30.5,0 33.73,40 92.69,83.7 105.55,78.25 267.27,59.78 349.31,-50.93 27.99,-37.77 20.2,-32.73 61.88,-36.91 52.18,-5.23 123.57,-10.65 168.66,-25.36 90.71,-29.59 78.89,-63.76 78.89,-178.64 0,-35.66 -23.96,-218.07 -54.26,-242.08 -11.87,-9.41 -31.56,-21.41 -45.65,-28.43 -56.54,-28.17 -99.17,-42.95 -163.94,-58.32 -51.79,-12.29 -192.98,-33.83 -253.25,-43.08 -24.72,-3.8 -235.99,-35.39 -255.54,-44.33 -16.6,-7.6 -32.84,-15.79 -48.66,-25.42l-95.89 -52.28c-17.07,-8.84 -30.36,-16.99 -48.24,-25.84 -34.55,-17.11 -62.42,-34.27 -97.6,-50.57 -9.61,-4.45 -15.21,-5.93 -24.76,-10.52 -87.54,-42.09 -154.36,-67.71 -256.3,-78.85 -131.27,-14.34 -278.06,-16.9 -412.81,-17.67 -23.75,-0.14 -32.02,3.46 -52.73,3.71 -18.68,0.23 -38.12,-0.81 -56.7,-0.25 -19.25,0.57 -29.12,3.83 -52.79,3.66 -68.91,-0.51 -149.31,9.69 -207.89,21.42 -136.14,27.26 -370.83,121.02 -510.79,177.13 -86.3,34.6 -115.16,20.47 -197.08,32.22 -81.72,11.72 -112.97,-6.01 -124.97,104.34 -7.34,67.48 -17.63,138.03 -17.63,211.68z"/>
 </g>
</svg>
