<?xml version="1.0" encoding="UTF-8"?>
<!DOCTYPE svg PUBLIC "-//W3C//DTD SVG 1.1//EN" "http://www.w3.org/Graphics/SVG/1.1/DTD/svg11.dtd">
<!-- Creator: CorelDRAW 2018 (64 Bit) -->
<svg xmlns="http://www.w3.org/2000/svg" xml:space="preserve" width="100%" height="100%" version="1.1" shape-rendering="geometricPrecision" text-rendering="geometricPrecision" image-rendering="optimizeQuality" fill-rule="evenodd" clip-rule="evenodd"
viewBox="0 0 2596.47 2598.91"
 xmlns:xlink="http://www.w3.org/1999/xlink">
 <g id="Ebene_x0020_1">
  <metadata id="CorelCorpID_0Corel-Layer"/>
  <g id="_1870614793968">
   <path fill="#0A2737" d="M56.44 1560.51c0,-44.02 5.83,-72.96 19.12,-107.89 16.97,-44.6 41.68,-76.91 81.04,-102.4 22.14,-14.35 22.21,-5.9 25.98,-33.99 5.48,-40.87 11.44,-66.28 20.58,-102.9 22.48,-90.01 101.82,-277.24 213.12,-277.24l560.93 0c37.45,0 66,15.23 85.62,34.32 86.47,84.12 135.78,216.31 150.88,339.49 5.19,42.4 0.91,18.01 41.13,50.59 97.15,78.68 108.05,230.2 52.83,332.94 -8.61,16.02 -16.22,16.88 -16.75,39.68 -1.07,45.73 7.63,137.88 -9.52,159.82 -8.12,10.39 -22.1,16.84 -39.61,16.84l-119.94 0c-58.56,0 -49.39,-55.92 -49.39,-105.84l-747.9 0c0,120.63 5.68,105.84 -169.34,105.84 -15.85,0 -30.42,-5.97 -38.14,-14.77 -11.04,-12.56 -6.76,-26.05 -9.77,-46.68 -5.17,-35.56 -1.13,-75.13 -1.24,-111.65 -0.09,-28.83 -13.82,-30.64 -33.09,-79.8 -9.34,-23.84 -16.54,-64.44 -16.54,-96.36zm-56.44 -14.11c0,73.95 11.01,121.48 44.03,181.75 18.83,34.37 -12.18,138.77 19.99,188.16 17.38,26.69 44.54,49.9 87.68,49.9l127 0c59.29,0 102.3,-45.58 102.3,-105.83l635.01 0c0,58.74 43.92,105.83 102.31,105.83l127 0c42.31,0 72.48,-22.57 88.12,-49.46 31.03,-53.38 2.55,-154.87 18.23,-186.38 8.04,-16.14 15.86,-29.07 23.22,-47.34 47.85,-118.92 18.81,-290.1 -83.65,-365.99 -21.41,-15.86 -20.15,-9.02 -25.26,-41.77 -5.83,-37.33 -16.34,-77.73 -27.24,-110.35 -35.39,-105.86 -119.91,-285.27 -254.48,-285.27l-571.51 0c-161.54,0 -258.79,254.32 -281.24,392.57 -5.3,32.66 -0.98,26.95 -23.68,43.34 -14.21,10.26 -22.86,20.07 -34.7,32.33 -38.64,40.02 -73.13,120.57 -73.13,198.51z"/>
   <path fill="#0A2737" d="M1467.57 470.42c0,-0.22 3.53,-12.53 3.7,-20.99 1.21,-59.76 9.38,-87.9 33.59,-146.34 19.35,-46.73 50.57,-88.1 85.3,-122.83 257.95,-257.95 700.99,-75.86 700.99,290.16 0,284.76 -285.03,496.87 -578.15,375.47 -46.73,-19.35 -88.1,-50.57 -122.84,-85.31 -17.99,-18 -32.63,-33.25 -47.12,-55.18 -28.5,-43.12 -51.79,-88.21 -63.44,-141.18 -3.15,-14.33 -6.73,-32.27 -8.03,-44.88l-0.87 -37.94c-1.97,-13.51 -3.13,-3.21 -3.13,-10.98zm-56.44 -28.22c0,89.64 3.25,148.35 44.66,230.51 51.88,102.93 117.29,169.28 219.91,221.06 177.55,89.58 399.4,46.87 537.13,-90.85 71.92,-71.93 136.7,-192.37 136.7,-304.28 0,-89.64 -3.25,-148.36 -44.66,-230.51 -51.89,-102.93 -117.29,-169.29 -219.92,-221.06 -177.55,-89.59 -399.4,-46.87 -537.12,90.85 -40.34,40.34 -64.21,75.07 -90.85,127.87 -21.02,41.65 -45.85,114.32 -45.85,176.41z"/>
   <path fill="#0A2737" d="M1714.52 2128.49c0,-0.21 3.53,-12.52 3.7,-20.99 0.75,-37.02 -1.39,-26.84 7.71,-69.9 38.32,-181.29 207.54,-319.93 401.34,-319.93 227.54,0 410.83,183.29 410.83,410.82 0,366.11 -443.1,548.06 -700.99,290.17 -32.96,-32.97 -66.4,-76.17 -84.31,-120.31 -20.9,-51.54 -34.58,-88.62 -34.61,-145.3 0,-4.21 0.05,-9.48 -0.54,-13.57 -1.97,-13.51 -3.13,-3.21 -3.13,-10.99zm-56.45 -28.22c0,89.64 3.25,148.36 44.66,230.51 51.89,102.93 117.3,169.29 219.92,221.07 177.55,89.58 399.4,46.87 537.12,-90.86 71.93,-71.93 136.7,-192.36 136.7,-304.27 0,-89.65 -3.24,-148.36 -44.65,-230.51 -51.89,-102.94 -117.3,-169.29 -219.92,-221.07 -177.55,-89.58 -399.4,-46.87 -537.12,90.86 -40.34,40.33 -64.22,75.07 -90.86,127.87 -21.01,41.65 -45.85,114.32 -45.85,176.4z"/>
   <path fill="#0A2737" d="M769.06 1260.65l-472.72 0 20.71 -67.48c16.95,-46.89 57.22,-158.3 116.87,-158.3l529.17 0c42.76,0 76.06,58.55 90.25,93.21 22.49,54.93 32.94,74.3 47.34,136.1l-7.06 0c-0.46,-20.74 -9.82,-42.77 -17.72,-56.36 -7.66,-13.18 -22.62,-33.41 -34.62,-42.99 -131.87,-105.35 -265.16,11.04 -272.22,95.82zm-543.28 67.03c29.79,-2.48 47.89,-10.58 91.72,-10.58l504.48 0c0,-38.61 2.83,-73.2 28.98,-101.56 45.62,-49.47 121.1,-47.3 164.08,3.75 22.61,26.85 25.67,49.93 25.67,97.81 21.94,1.82 39.74,3.64 67.07,3.48 29.4,-0.18 40.46,5.19 63.46,7.1 -0.34,-14.98 -7.18,-42.72 -10.55,-56.49 -4.75,-19.47 -9.43,-36.09 -14.89,-55.66 -9.02,-32.36 -22.68,-70.36 -36.88,-100.71 -4.24,-9.06 -4.99,-13.59 -9.38,-22.36 -25.22,-50.46 -68.46,-114.04 -132.92,-114.04l-536.23 0c-55.4,0 -94.82,46.09 -117.53,87.09 -37.08,66.92 -57.12,127.69 -75.82,202.87 -3.81,15.3 -10.91,43.61 -11.26,59.3z"/>
   <path fill="#0A2737" d="M2162.55 2255.5l-84.66 0 0 -102.31c39.37,0 127,-9.59 127,38.8 0,19.12 2.89,39.12 -12.03,51.48 -5.48,4.53 -21.58,12.03 -30.31,12.03zm-14.11 -172.87l-70.55 0 0 -81.14c100.07,0 109.36,-9.33 109.36,49.39 0,21.66 -16.79,31.75 -38.81,31.75zm-144.64 246.95c140.07,0 278.7,23.61 278.7,-130.53 0,-65.97 -47.18,-79.07 -56.45,-91.72 43.53,-11.63 56.15,-122.46 -8.41,-160.93 -44.48,-26.51 -152.21,-18.99 -213.84,-18.99l0 402.17z"/>
   <path fill="#0A2737" d="M1876.8 364.58l7.06 0c1.67,20.14 33.91,107.14 35.27,123.48l-77.61 0c1.87,-22.49 33.37,-100.54 35.28,-123.48zm-158.75 289.29c76.03,0 70.77,6 77.09,-18.16 6.7,-25.59 20.08,-57.8 21.69,-77.1l127 0c0.47,5.69 20.57,95.26 35.28,95.26 97.8,0 79.62,18.86 41.88,-94.81l-70.58 -208.11c-38.7,-116.93 -17.32,-99.26 -98.31,-99.26 -14.55,0 -33.53,74.02 -40.98,96.6 -6.41,19.39 -12.62,34.14 -18.54,52.02l-70.59 208.1c-10.04,30.03 -20.91,45.46 -3.94,45.46z"/>
   <path fill="#0A2737" d="M497.42 1549.93c34.1,-2.84 65.77,-21.17 165.81,-21.17 67.65,0 134.19,-1.35 198.99,12.68 14.01,3.04 23.8,7.36 37.37,8.49 -9.69,13.23 -69.03,19.3 -87.89,21.47 -93.94,10.81 -204.9,9.42 -295.98,-11.55 -12.51,-2.88 -11.67,-0.87 -18.3,-9.92zm-74.08 3.53c0,99.12 346.7,86.82 444.87,67.4 22.54,-4.46 45.47,-11.26 64.39,-20.29 75.79,-36.16 41.05,-92.25 -45.67,-112.06 -86.75,-19.82 -149.72,-16.19 -237.81,-16.19 -72.81,0 -225.78,17.39 -225.78,81.14z"/>
   <path fill="#0A2737" d="M1075.98 325.78c-27.82,2.31 -92.61,39.46 -112.94,52.87 -62.94,41.51 -124.77,109.88 -153.16,178.44 -28.6,69.05 -33.76,90.79 -33.76,167.33 0,18.6 59.21,51.19 60,-31.73 0.57,-60.14 31.83,-131.08 64.93,-174.95 38.32,-50.77 76.28,-79.89 129.21,-110.69 17.33,-10.08 38,-16.04 56.31,-24.83 0.41,18.71 7.05,32.88 7.05,52.92 13.92,-3.71 99.3,-76.51 119.59,-92.08 8.39,-6.44 11.29,-5.37 14.47,-17.28l-158.75 -59.97c0,22.47 7.05,35.71 7.05,59.97z"/>
   <path fill="#0A2737" d="M2194.3 981.95c0,28.25 17.73,26.81 62.03,61.45 63.94,50 121.42,160.03 121.42,249l0 56.45c0,21.46 -3.53,25.73 -3.53,45.86 -19.29,-4.5 -32.67,-12.93 -52.91,-17.64 0.53,23.99 24.69,135.07 24.69,165.81 14.63,-1.22 9.23,-1.36 18.92,-9.31 6.92,-5.68 10.81,-8.72 17.27,-14.48 18.06,-16.12 87.1,-65.96 97.87,-82.05 -8.55,-4.52 -38.31,-16.72 -49.39,-17.64 0,-27.39 7.05,-43.92 7.05,-74.08 0,-105.98 -10.87,-175.37 -67.72,-260.37 -14.97,-22.38 -42.26,-58.3 -61.95,-75.63 -13.48,-11.86 -67.1,-55.59 -85.52,-55.59 -13.89,0 -28.23,11.51 -28.23,28.22z"/>
   <path fill="#0A2737" d="M278.7 1609.9c-78.81,0 -69.21,-112.89 -10.59,-112.89 36.5,0 67.03,12.97 67.03,56.45 0,30.93 -24.82,56.44 -56.44,56.44zm-10.59 56.45c139.39,0 165.72,-165.69 55.34,-217.62 -110.65,-52.07 -213.41,93.71 -130.42,179.81 15.83,16.43 44.85,37.81 75.08,37.81z"/>
   <path fill="#0A2737" d="M1061.87 1553.46c0,-78.48 112.89,-69.36 112.89,-10.58 0,19.7 0.85,35.33 -13.72,49.77 -36.51,36.21 -99.17,12.32 -99.17,-39.19zm-56.44 -3.53c0,104.67 122.07,157.97 198.56,78.61 15.11,-15.68 32.47,-51.4 29.94,-81.28 -2.59,-30.56 -17.11,-59.13 -36.1,-76.84 -79.51,-74.15 -192.4,-9.49 -192.4,79.51z"/>
  </g>
 </g>
</svg>
