<svg xmlns="http://www.w3.org/2000/svg" xmlns:xlink="http://www.w3.org/1999/xlink" width="100" height="100" viewBox="0 0 100 100"><g><g transform="translate(50 50) scale(0.69 0.69) rotate(0) translate(-50 -50)" style="fill:#000000"><svg fill="#000000" xmlns="http://www.w3.org/2000/svg" data-name="Layer 1" viewBox="0 0 100 100" x="0px" y="0px"><title>varie_espanse</title><path d="M17.11,53.8A18.24,18.24,0,0,0,14.59,73a1,1,0,0,0,.91.58,1.06,1.06,0,0,0,.42-.09,1,1,0,0,0,.49-1.33,16.22,16.22,0,0,1,2.24-17.07,1,1,0,0,0-1.54-1.28Z"></path><path d="M22.73,79.27a16.56,16.56,0,0,1-3.36-2.72,1,1,0,1,0-1.45,1.37,17.82,17.82,0,0,0,3.77,3,1,1,0,0,0,.52.15,1,1,0,0,0,.52-1.85Z"></path><path d="M8.13,60.17a.9.9,0,0,0,.28,0,1,1,0,0,0,1-.71,23.15,23.15,0,0,1,8.28-12.19,1,1,0,1,0-1.19-1.6,25.13,25.13,0,0,0-9,13.22A1,1,0,0,0,8.13,60.17Z"></path><path d="M8.58,65.46a1,1,0,0,0-1-1h0a1,1,0,0,0-1,1,24.53,24.53,0,0,0,8.63,18.65,1,1,0,0,0,1.4-.12,1,1,0,0,0-.11-1.41A22.55,22.55,0,0,1,8.58,65.46Z"></path><path d="M93.31,32.72a3.58,3.58,0,0,0-1.66-2.2L59.27,11.39a3.61,3.61,0,0,0-5.33,4,3.55,3.55,0,0,0,1.66,2.2l1.14.68-2.3,3.9h0l-1,1.72a17.9,17.9,0,0,0,2.06,20.53,1.91,1.91,0,0,1,.17,2.23l-.84,1.42h0l-.73,1.23a1.92,1.92,0,0,1-2,.93,17.88,17.88,0,0,0-19,8.09L29.76,64l-1.14-.67A3.6,3.6,0,1,0,25,69.48L57.33,88.61A3.61,3.61,0,1,0,61,82.4l-1.14-.67,3.32-5.62a17.41,17.41,0,0,0-2-20.55A1.94,1.94,0,0,1,61,53.3l1.41-2.38h0a2.36,2.36,0,0,1,2.62-1,29.21,29.21,0,0,0,5.83.16H71a17.4,17.4,0,0,0,12.52-8.4l3.33-5.63,1.13.67h0a3.61,3.61,0,0,0,5.33-4ZM60.72,85.11a1.58,1.58,0,0,1-.17,1.22,1.61,1.61,0,0,1-1,.73,1.58,1.58,0,0,1-1.22-.17L26,67.76a1.59,1.59,0,0,1-.74-1,1.59,1.59,0,0,1,1.15-2,1.45,1.45,0,0,1,.41-.06,1.58,1.58,0,0,1,.81.23l2,1.18h0L58,82.94h0l2,1.18A1.57,1.57,0,0,1,60.72,85.11ZM32.4,65.51l25,.32A2.78,2.78,0,0,1,60.07,68l1.21,7.4-3.14,5.32ZM62.78,72.2,62,67.64a4.77,4.77,0,0,0-4.65-3.81l-25-.32,2.46-4.17a15.87,15.87,0,0,1,16.83-7.16,3.86,3.86,0,0,0,2.55-.34,3.89,3.89,0,0,0,1.47,2.07,3.63,3.63,0,0,0,2.05.59,5.19,5.19,0,0,0,1-.11,3.84,3.84,0,0,0,1,2.5A15.43,15.43,0,0,1,62.78,72.2ZM65.47,48a4.39,4.39,0,0,0-4.81,1.93h0l-1.31,2.23a3,3,0,0,1-2.57.11,2.82,2.82,0,0,1-.91-2l.66-1.11h0l.84-1.43A3.9,3.9,0,0,0,57,43.11a15.89,15.89,0,0,1-2.11-17.73c1.29,5.06,5,16.43,12.87,22.78A12.3,12.3,0,0,1,65.47,48ZM81.8,40.66A15.39,15.39,0,0,1,71.06,48C60.74,41.68,56.9,25.45,56.35,22.86l2.11-3.58L85.12,35Zm9.4-6.22A1.61,1.61,0,0,1,89,35l-2-1.18h0l-30.38-18a1.59,1.59,0,0,1-.74-1,1.63,1.63,0,0,1,.17-1.22,1.6,1.6,0,0,1,1-.73,1.56,1.56,0,0,1,1.21.17L90.63,32.24a1.56,1.56,0,0,1,.74,1A1.58,1.58,0,0,1,91.2,34.44Z"></path></svg></g></g></svg>