<?xml version="1.0" encoding="UTF-8"?>
<!DOCTYPE svg PUBLIC "-//W3C//DTD SVG 1.1//EN" "http://www.w3.org/Graphics/SVG/1.1/DTD/svg11.dtd">
<!-- Creator: CorelDRAW 2018 (64 Bit) -->
<svg xmlns="http://www.w3.org/2000/svg" xml:space="preserve" width="100%" height="100%" version="1.1" shape-rendering="geometricPrecision" text-rendering="geometricPrecision" image-rendering="optimizeQuality" fill-rule="evenodd" clip-rule="evenodd"
viewBox="0 0 2420.58 2294.8"
 xmlns:xlink="http://www.w3.org/1999/xlink">
 <g id="Ebene_x0020_1">
  <metadata id="CorelCorpID_0Corel-Layer"/>
  <g id="escooter">
   <path fill="#0A2737" d="M769.56 2096.57c0,-126.67 138.19,-159.8 207.4,-94.5 65.11,61.44 49.27,210.92 -94.51,210.92 -59.13,0 -112.89,-56.48 -112.89,-116.42zm1270.02 -3.52c0,-68.3 51.5,-123.48 130.53,-123.48 100.15,0 155.57,131.61 83.88,203.83 -65.43,65.9 -164.32,48.67 -202.76,-32.03 -4.8,-10.07 -11.65,-35.59 -11.65,-48.32zm-165.81 -948.99c0,28.76 169.65,604.44 194.03,709.09 -20.11,4.69 -36.21,14.41 -54.15,23.47 -48.87,24.67 -103.3,80.58 -104.6,138.81l-338.67 0 12.06 -9.11c37.28,-26.16 33.83,-65.14 33.8,-114.36 -0.03,-57.53 -3.53,-108.69 -3.53,-169.34 0,-83.06 3.51,-155.58 3.53,-236.36 0.03,-119.18 -39.62,-129.92 -153.81,-206.03l-107.24 -72.68c-12.14,-8.04 -23.25,-15.49 -35.99,-23.98 -14.72,-9.81 -59.98,-42.98 -73.38,-46.56 4.29,-18.42 23.55,-48.74 31.7,-67.08l98.83 -208.09c19.49,4.54 20.92,14.13 34.75,25.22l131.09 108.8c56.79,43.44 82.76,56.48 158.72,56.48 56.42,0 73.02,-51.94 78.55,-59.04 6.19,-7.96 70.69,-48.65 83.73,-57.38l45.86 169.34c-20.26,1.68 -35.28,17.29 -35.28,38.8zm-1587.52 137.59l-17.64 0c-62.63,0 -116.42,-59.36 -116.42,-123.48 0,-23.74 21.43,-91.03 30.39,-117.78 3.75,-11.19 8.02,-29.25 11.95,-37.44 38.89,9.06 78,24.77 116.42,35.28 19.53,5.34 39.39,11.63 59.55,18.05 14.46,4.61 43.99,15.86 60.39,17.23 -0.29,13.31 -34.46,122.78 -40.2,136.18 -14.89,34.75 -56.89,71.96 -104.44,71.96zm642.06 -98.78c0,24.96 11.64,59.41 22.67,76.12 31.81,48.21 115.19,88.25 162.82,122.92l170.12 115.64c19.79,13.19 38,25.28 57.15,38.1 0,92.9 0,185.8 0,278.7 0,66.64 -8.06,128.6 39.8,171.87l41.34 29.21 -275.17 0c-6.15,-73.89 -59.42,-125.41 -119.88,-155.28 -35.43,-17.51 -63.45,-20.08 -110.91,-26.69 -11.55,-1.61 -22.1,-0.57 -32.95,-2.32 -57.45,-9.27 -26.84,-16.79 -124.32,-16.79 -104.25,0 -202.15,79.76 -244.64,164.59 -25.76,51.44 -27.99,88.92 -71.91,132.7 -67.44,67.21 -177.38,76.08 -259.26,24.51 -30.04,-18.92 -54.4,-44.37 -71.02,-77.15 -47.92,-94.55 -19.92,-143.91 6.25,-236.11l139.63 -453.05c59.56,0 80.57,-6.41 121.18,-26.99 19.61,-9.93 26.91,-18.07 43.21,-30.87 49.48,-38.84 73.99,-142.45 91.65,-204.68 9.55,-33.66 32.35,-77.38 -7.24,-99.15 -8.44,-4.64 -32.68,-12 -44.19,-12.26 0.4,-17.92 12.46,-48.96 17.22,-63.91 7.15,-22.43 18.06,-55.23 18.06,-77.2 0,-36.17 -62.71,-58.4 -83.3,-5.69l-36.65 118.58c-23.93,-5.58 -54.49,-13.6 -77.61,-24.69 3.37,-7.01 38.81,-125.03 38.81,-130.53 0,-46.43 -60.26,-55.34 -81.69,-21.72 -7.64,11.98 -9.39,28.05 -13.98,42.47 -4.16,13.07 -7.79,24.87 -12.43,40.49 -4.53,15.24 -10.47,28.04 -11.85,44.59 -31.18,-2.59 -56.78,-26.52 -83.31,-2.17 -19.56,17.97 -71.91,212.28 -71.91,242.06 0,13.72 6.92,49.76 10.06,60.5 15.37,52.46 51.69,97.76 99.3,122.95 -2.83,33.96 -33.41,112.4 -43.08,147.42 -6.15,22.27 -14.71,48.41 -22.66,72.59l-67.9 221.39c-39.27,123.28 -65.91,206.43 1.98,328.79 11.28,20.32 24.07,32.37 37.86,50.34 9.39,12.22 11.38,11.16 22.15,20.18 84.45,70.77 197.42,94.26 303.01,53.88 80.37,-30.73 144.78,-96.96 172.66,-180.12 22.56,-67.29 57.12,-119.65 126.61,-137.98 26.56,-7.01 55.03,-4.98 86.74,-4.98l-18.7 13.05c-33.22,24.13 -56.95,55.12 -71.6,94.21 -53.89,143.77 61.16,286.63 217.03,273.57 35.1,-2.95 75.63,-21.26 101.59,-43.15 27.87,-23.5 71.54,-74.15 71.54,-122.49 39.93,9.31 365.16,3.53 433.93,3.53 58.21,0 415.88,6.82 437.45,-3.53 9.69,41.63 29.64,86.82 62.91,113.48 53.33,42.72 85.67,52.33 159.34,52.33 44.28,0 94.96,-31.47 119.12,-53.74 31.08,-28.66 49.68,-64.37 60.8,-112.07 25.43,12.2 56.44,-6.58 56.44,-31.75 0,-72.98 -22.2,-133.48 -71.43,-182.56 -38.87,-38.74 -92.9,-77.13 -154.35,-78.5 -9.42,-40.44 -21.51,-80.53 -33.24,-121.98l-84.67 -306.92c-4.66,-16.47 -15.79,-49.12 -16.15,-64.99 87.41,0 121.83,-113.09 64.55,-170.38 -50.57,-50.56 -89.21,-22.77 -120.99,-20.12 -0.58,-26.23 -62.47,-229.87 -70.56,-264.59 22.25,-5.94 143.35,-94.44 172.16,-113.59 15.28,-10.16 46.57,-26.33 46.57,-48.69 0,-26.08 -13.49,-41.09 -35.12,-46.16 -21.59,-5.06 -37.19,9.69 -53.78,20.76l-198.97 132.65c-32.59,21.73 -65.85,47.44 -100.19,65.61 -9.35,-40.12 -92.94,-144.44 -131.41,-182.57l-156.99 -156.98c-10.7,-10.72 -15.14,-15.66 -27.62,-25.3 -11.58,-8.95 -16.23,-16.75 -27.56,-25.35 -72.26,-54.84 -169.06,-17.28 -205.63,56.19l-251.61 513.93c-15.01,30.03 -35.28,61.42 -35.28,105.84z"/>
   <path fill="#0A2737" d="M744.87 1518.01c-101.13,0 -202.28,0.23 -303.4,0 -57.24,-0.14 -83.6,9.62 -115.42,36.27 -57.49,48.16 -62.86,147.29 -5.36,204.46 26.28,26.13 64.44,41.5 103.15,41.5l402.17 0c103.74,0 130.48,-84.57 165.81,-155.23 17.63,-35.28 35.27,-70.56 52.91,-105.83 18.1,-36.19 34.12,-73.83 52.92,-109.36 -20.23,-10.71 -40.97,-26.15 -59.97,-38.81 -20.17,-13.44 -37.39,-26.11 -58.56,-40.22 -30.28,-20.18 -58.99,-38.47 -81.12,-67.05 -15.74,-20.34 -11,-22.75 -26.13,-26.79 -3.36,14.42 -53.28,110.08 -63.5,130.53 -21.6,43.21 -41.06,88.12 -63.5,130.53z"/>
   <path fill="#0A2737" d="M1443.38 424.39c227.13,0 286.64,-299.43 97.64,-401.04 -81.23,-43.66 -182.28,-25.07 -246.67,47.39 -126.1,141.89 -15.66,353.65 149.03,353.65z"/>
   <path fill="#0A2737" d="M840.12 2089.52c0,66.8 102.31,69.69 102.31,3.53 0,-15.36 -5.72,-27.57 -13.39,-36.01 -31.81,-34.99 -88.92,-6.51 -88.92,32.48z"/>
   <path fill="#0A2737" d="M2113.66 2085.99c0,75.22 98.78,74.4 98.78,3.53 0,-69.21 -98.78,-59.26 -98.78,-3.53z"/>
  </g>
 </g>
</svg>
