<svg xmlns:dc="http://purl.org/dc/elements/1.1/" xmlns:cc="http://creativecommons.org/ns#" xmlns:rdf="http://www.w3.org/1999/02/22-rdf-syntax-ns#" xmlns:svg="http://www.w3.org/2000/svg" xmlns="http://www.w3.org/2000/svg" xmlns:sodipodi="http://sodipodi.sourceforge.net/DTD/sodipodi-0.dtd" xmlns:inkscape="http://www.inkscape.org/namespaces/inkscape" version="1.1" xml:space="preserve" viewBox="0 0 32 32" x="0px" y="0px"><g><path style="color:#000000;font-style:normal;font-variant:normal;font-weight:normal;font-stretch:normal;font-size:medium;line-height:normal;font-family:sans-serif;font-variant-ligatures:normal;font-variant-position:normal;font-variant-caps:normal;font-variant-numeric:normal;font-variant-alternates:normal;font-feature-settings:normal;text-indent:0;text-align:start;text-decoration:none;text-decoration-line:none;text-decoration-style:solid;text-decoration-color:#000000;letter-spacing:normal;word-spacing:normal;text-transform:none;writing-mode:lr-tb;direction:ltr;text-orientation:mixed;dominant-baseline:auto;baseline-shift:baseline;text-anchor:start;white-space:normal;shape-padding:0;clip-rule:nonzero;display:inline;overflow:visible;visibility:visible;opacity:1;isolation:auto;mix-blend-mode:normal;color-interpolation:sRGB;color-interpolation-filters:linearRGB;solid-color:#000000;solid-opacity:1;vector-effect:none;fill:#000000;fill-opacity:1;fill-rule:nonzero;stroke:none;stroke-width:2;stroke-linecap:round;stroke-linejoin:round;stroke-miterlimit:4;stroke-dasharray:none;stroke-dashoffset:0;stroke-opacity:1;paint-order:normal;color-rendering:auto;image-rendering:auto;shape-rendering:auto;text-rendering:auto;enable-background:accumulate" d="m 23.7417,6.00107 c -0.534,0.0241 -0.9546,0.46354 -0.9552,0.99794 V 9.99872 H 8.0003 C 5.8015,9.99872 4,11.79985 4,13.99833 v 0.4277 c -0.019,1.35218 2.0193,1.35218 2.0002,0 v -0.4277 c 0,-1.12518 0.8748,-1.9998 2.0001,-1.9998 h 14.7862 v 2.99971 c 10e-5,0.8294 0.9518,1.29819 1.6095,0.79289 l 5.2133,-3.99961 c 0.5208,-0.40033 0.5208,-1.18545 0,-1.58578 L 24.396,6.20613 C 24.2089,6.06281 23.9772,5.99019 23.7417,6.00107 Z"></path><path style="color:#000000;font-style:normal;font-variant:normal;font-weight:normal;font-stretch:normal;font-size:medium;line-height:normal;font-family:sans-serif;font-variant-ligatures:normal;font-variant-position:normal;font-variant-caps:normal;font-variant-numeric:normal;font-variant-alternates:normal;font-feature-settings:normal;text-indent:0;text-align:start;text-decoration:none;text-decoration-line:none;text-decoration-style:solid;text-decoration-color:#000000;letter-spacing:normal;word-spacing:normal;text-transform:none;writing-mode:lr-tb;direction:ltr;text-orientation:mixed;dominant-baseline:auto;baseline-shift:baseline;text-anchor:start;white-space:normal;shape-padding:0;clip-rule:nonzero;display:inline;overflow:visible;visibility:visible;opacity:1;isolation:auto;mix-blend-mode:normal;color-interpolation:sRGB;color-interpolation-filters:linearRGB;solid-color:#000000;solid-opacity:1;vector-effect:none;fill:#000000;fill-opacity:1;fill-rule:nonzero;stroke:none;stroke-width:2;stroke-linecap:round;stroke-linejoin:round;stroke-miterlimit:4;stroke-dasharray:none;stroke-dashoffset:0;stroke-opacity:1;paint-order:normal;color-rendering:auto;image-rendering:auto;shape-rendering:auto;text-rendering:auto;enable-background:accumulate" d="m 8.1837,16.00043 c -0.2103,0.006 -0.4133,0.0787 -0.5801,0.20699 L 2.3907,20.2065 c -0.5209,0.40024 -0.5209,1.18533 0,1.58557 l 5.2129,3.99909 c 0.6577,0.50521 1.6093,0.0365 1.6094,-0.79279 v -2.99932 h 14.7871 c 2.1987,0 4,-1.80087 4,-3.99908 v -0.42568 c 0.01,-0.56368 -0.4519,-1.02229 -1.0157,-1.01344 -0.5515,0.009 -0.9919,0.46206 -0.9843,1.01344 v 0.42568 c 0,1.12504 -0.8747,1.99954 -2,1.99954 H 9.213 V 17.0002 c 2e-4,-0.56378 -0.4656,-1.01623 -1.0293,-0.99977 z"></path></g></svg>