<svg width="100" height="100" viewBox="0 0 512 512" xmlns="http://www.w3.org/2000/svg" xmlns:xlink="http://www.w3.org/1999/xlink" overflow="hidden"><g><path d="M450.012 213.445C425.936 189.386 393.266 175.911 359.23 176L152.77 176C82.0486 175.997 24.5624 233.036 24.012 303.755 24.012 303.837 24 303.917 24 304L24 400C24.0003 401.58 24.468 403.124 25.344 404.438L41.344 428.438C42.8277 430.663 45.3254 432 48 432L58.752 432C67.5795 456.991 94.9948 470.094 119.986 461.266 133.663 456.435 144.421 445.677 149.252 432L362.752 432C371.58 456.991 398.995 470.094 423.986 461.266 437.663 456.435 448.421 445.677 453.252 432L464 432C466.675 432 469.172 430.663 470.656 428.438L486.656 404.438C487.532 403.124 488 401.58 488 400L488 304.77C488 304.455 488 304.151 487.989 303.841 487.835 269.862 474.172 237.339 450.012 213.445ZM40 312 64 312C68.4183 312 72 315.582 72 320 72 324.418 68.4183 328 64 328L40 328ZM104 448C86.3269 448 72 433.673 72 416 72 398.327 86.3269 384 104 384 121.673 384 136 398.327 136 416 135.98 433.665 121.665 447.98 104 448ZM168 416 152 416C152 389.49 130.51 368 104 368 77.4903 368 56 389.49 56 416L52.281 416 40 397.578 40 344 64 344C77.2504 344.004 87.9955 333.266 87.9999 320.016 88.0008 317.285 87.5355 314.574 86.624 312L168 312ZM168 296 64.36 296C68.5509 250.712 106.519 216.054 152 216L168 216ZM248 416 184 416 184 312 248 312ZM248 296 184 296 184 216 248 216ZM328 416 264 416 264 312 328 312ZM328 296 264 296 264 216 328 216ZM152 200C97.6904 200.065 52.5495 241.856 48.305 296L40.345 296C44.9216 237.299 93.8906 191.999 152.77 192L359.23 192C418.109 191.999 467.078 237.299 471.655 296L463.7 296C459.455 241.855 414.312 200.063 360 200ZM447.64 296 344 296 344 216 360 216C405.481 216.054 443.449 250.712 447.64 296ZM408 448C390.327 448 376 433.673 376 416 376 398.327 390.327 384 408 384 425.673 384 440 398.327 440 416 439.98 433.665 425.665 447.98 408 448ZM472 397.578 459.719 416 456 416C456 389.49 434.51 368 408 368 381.49 368 360 389.49 360 416L344 416 344 312 472 312Z"/><path d="M104 391C90.1929 391 79 402.193 79 416 79 429.807 90.1929 441 104 441 117.807 441 129 429.807 129 416 128.985 402.199 117.801 391.015 104 391ZM104 425C99.0294 425 95 420.971 95 416 95 411.029 99.0294 407 104 407 108.971 407 113 411.029 113 416 112.994 420.968 108.968 424.994 104 425Z"/><path d="M408 391C394.193 391 383 402.193 383 416 383 429.807 394.193 441 408 441 421.807 441 433 429.807 433 416 432.985 402.199 421.801 391.015 408 391ZM408 425C403.029 425 399 420.971 399 416 399 411.029 403.029 407 408 407 412.971 407 417 411.029 417 416 416.994 420.968 412.968 424.994 408 425Z"/><rect x="360" y="328" width="16" height="16"/><path d="M298.6 109.317 310.55 98.683C283.791 68.5572 237.676 65.828 207.551 92.5872 207.536 92.6001 207.522 92.6131 207.507 92.626L218.142 104.581C241.643 83.671 277.646 85.7717 298.556 109.273 298.569 109.288 298.582 109.302 298.595 109.317Z"/><path d="M279.913 125.317 291.868 114.683C274.272 94.8742 243.95 93.0803 224.141 110.676 224.132 110.684 224.122 110.693 224.113 110.701L234.748 122.656C247.939 110.918 268.149 112.096 279.887 125.287 279.895 125.297 279.904 125.307 279.913 125.317Z"/><path d="M315.463 90.486 327.352 79.779C291.89 40.373 231.197 37.1759 191.791 72.6381 191.787 72.6414 191.784 72.6447 191.78 72.648L202.487 84.537C235.322 54.982 285.899 57.641 315.454 90.4759 315.457 90.4793 315.46 90.4827 315.463 90.486Z"/><circle cx="256" cy="143" r="15"/></g></svg>