<?xml version="1.0" encoding="UTF-8"?>
<!DOCTYPE svg PUBLIC "-//W3C//DTD SVG 1.1//EN" "http://www.w3.org/Graphics/SVG/1.1/DTD/svg11.dtd">
<!-- Creator: CorelDRAW 2020 (64-Bit) -->
<svg xmlns="http://www.w3.org/2000/svg" xml:space="preserve" width="50.9034mm" height="36.6175mm" version="1.1" style="shape-rendering:geometricPrecision; text-rendering:geometricPrecision; image-rendering:optimizeQuality; fill-rule:evenodd; clip-rule:evenodd"
viewBox="0 0 33301.07 23955.21"
 xmlns:xlink="http://www.w3.org/1999/xlink"
 xmlns:xodm="http://www.corel.com/coreldraw/odm/2003">
 <defs>
  <style type="text/css">
   <![CDATA[
    .fil0 {fill:#393185;fill-rule:nonzero}
   ]]>
  </style>
 </defs>
 <g id="Ebene_x0020_1">
  <metadata id="CorelCorpID_0Corel-Layer"/>
  <g id="_1813997987056">
   <path class="fil0" d="M22899.33 10486.13c-1294.21,-1293.29 -3050.15,-2017.49 -4879.75,-2012.85l-11097.87 0c-3801.43,-0.2 -6891.42,3065.78 -6921.06,6867.22 0,4.51 -0.65,8.64 -0.65,13.15l0 5160.34c0,84.85 25.06,167.93 72.35,238.52l859.88 1290.02c79.81,119.65 214.12,191.48 357.78,191.48l577.92 0c474.62,1343.34 1948.15,2047.65 3291.55,1573.22 735.26,-259.65 1313.37,-837.97 1573.22,-1573.22l11476.06 0c474.62,1343.34 1948.28,2047.65 3291.48,1573.22 735.32,-259.65 1313.57,-837.97 1573.22,-1573.22l577.79 0c143.66,0 277.97,-71.83 357.78,-191.48l860.08 -1290.02c47.1,-70.59 72.16,-153.67 72.16,-238.52l0 -5118.99c0,-16.75 0,-33.23 -0.65,-49.85 -8.18,-1826.46 -742.58,-3574.69 -2041.3,-4859.01zm-22039.26 5297.66l1290.02 0c237.48,0 429.94,192.47 429.94,429.94 0,237.48 -192.47,429.94 -429.94,429.94l-1290.02 0 0 -859.88zm3440.18 7310.31c-949.97,0 -1720.22,-770.06 -1720.22,-1720.03 0,-950.1 770.26,-1720.16 1720.22,-1720.16 949.9,0 1719.96,770.06 1719.96,1720.16 -1.05,949.44 -770.39,1718.98 -1719.96,1720.03zm3440.18 -1720.03l-860.14 0c0,-1425.05 -1155.19,-2580.24 -2580.04,-2580.24 -1425.05,0 -2580.1,1155.19 -2580.1,2580.24l-199.92 0 -660.15 -990.26 0 -2880.06 1290.02 0c712.29,0.2 1289.89,-576.87 1290.08,-1289.17 0,-146.74 -24.93,-292.49 -73.92,-430.79l4374.19 0 0 5590.28zm0 -6450.36l-5570.98 0c225.24,-2434.35 2266.15,-4297.32 4710.84,-4300.26l860.14 0 0 4300.26zm4300.26 6450.36l-3440.18 0 0 -5590.28 3440.18 0 0 5590.28zm0 -6450.36l-3440.18 0 0 -4300.26 3440.18 0 0 4300.26zm4300.06 6450.36l-3440.18 0 0 -5590.28 3440.18 0 0 5590.28zm0 -6450.36l-3440.18 0 0 -4300.26 3440.18 0 0 4300.26zm-9460.47 -5160.4c-2919.31,3.66 -5345.67,2250.06 -5573.86,5160.4l-427.85 0c245.98,-3155.47 2878.16,-5590.35 6043.12,-5590.35l11097.87 0c3164.96,0 5797.14,2434.87 6043.12,5590.35l-427.52 0c-228.32,-2910.54 -2654.88,-5156.94 -5574.25,-5160.4l-11180.63 0zm15891.46 5160.4l-5570.92 0 0 -4300.26 860.08 0c2444.75,2.94 4485.66,1865.91 4710.84,4300.26zm-2130.73 8170.38c-949.9,0 -1719.96,-770.06 -1719.96,-1720.03 0,-950.1 770.06,-1720.16 1719.96,-1720.16 949.97,0 1720.16,770.06 1720.16,1720.16 -1.18,949.44 -770.58,1718.98 -1720.16,1720.03zm3440.18 -2710.29l-660.15 990.26 -199.92 0c0,-1425.05 -1155.06,-2580.24 -2580.1,-2580.24 -1424.85,0 -2580.1,1155.19 -2580.1,2580.24l-860.08 0 0 -5590.28 6880.37 0 0 4600.02z"/>
   <path class="fil0" d="M4300.26 20030.2c-742.26,0 -1343.93,601.67 -1343.93,1343.86 0,742.06 601.67,1343.73 1343.93,1343.73 742.19,0 1343.86,-601.67 1343.86,-1343.73 -0.85,-741.86 -602,-1343.01 -1343.86,-1343.86zm0 1827.51c-267.31,0 -483.78,-216.54 -483.78,-483.65 0,-267.24 216.48,-483.78 483.78,-483.78 267.04,0 483.78,216.54 483.78,483.78 -0.39,266.91 -216.74,483.45 -483.78,483.65z"/>
   <path class="fil0" d="M20641.03 20030.2c-742.19,0 -1343.86,601.67 -1343.86,1343.86 0,742.06 601.67,1343.73 1343.86,1343.73 742.26,0 1343.86,-601.67 1343.86,-1343.73 -0.85,-741.86 -602,-1343.01 -1343.86,-1343.86zm0 1827.51c-267.04,0 -483.78,-216.54 -483.78,-483.65 0,-267.24 216.74,-483.78 483.78,-483.78 267.24,0 483.78,216.54 483.78,483.78 -0.33,266.91 -216.67,483.45 -483.78,483.65z"/>
   <polygon class="fil0" points="18060.93,16643.67 18921.07,16643.67 18921.07,17503.74 18060.93,17503.74 "/>
   <path class="fil0" d="M14760.48 4888.91l642.29 -571.51c-1438.39,-1619.48 -3917.03,-1766.08 -5536.44,-327.69 -0.72,0.72 -1.57,1.37 -2.29,2.09l571.58 642.49c1263.39,-1123.85 3198.52,-1011 4322.57,252.19 0.72,0.85 1.37,1.77 2.09,2.42l0.2 0z"/>
   <path class="fil0" d="M13756.02 5748.99l642.69 -571.71c-945.98,-1064.65 -2575.79,-1161.08 -3640.63,-215.3 -0.52,0.52 -1.05,0.85 -1.37,1.37l571.51 642.49c709.15,-630.91 1795.52,-567.59 2426.43,141.57 0.52,0.52 0.85,1.05 1.37,1.57z"/>
   <path class="fil0" d="M15666.94 3876.67l639.02 -575.5c-1906.21,-2118.11 -5168.45,-2290.03 -7286.76,-383.75 -0.2,0.2 -0.33,0.33 -0.52,0.52l575.5 639.02c1764.84,-1588.79 4483.57,-1445.78 6072.23,319.18 0.2,0.2 0.33,0.39 0.52,0.52z"/>
   <path class="fil0" d="M13276.88 6699.48c0,445.31 -360.86,806.24 -806.24,806.24 -445.38,0 -806.24,-360.92 -806.24,-806.24 0,-445.25 360.86,-806.3 806.24,-806.3 445.38,0 806.24,361.05 806.24,806.3z"/>
   <path class="fil0" d="M33114.49 0l-10823.69 0c-103.04,0 -186.64,83.54 -186.64,186.58l0 7837.72c0,103.17 83.61,186.77 186.64,186.77l10823.69 0c102.97,0 186.58,-83.61 186.58,-186.77l0 -7837.72c0,-103.04 -83.61,-186.58 -186.58,-186.58zm-186.58 1119.67l-1866.31 0 0 -746.51 1866.31 0 0 746.51zm-6345.03 -746.51l1866.11 0 0 746.51 -1866.11 0 0 -746.51zm-373.16 746.51l-1866.11 0 0 -746.51 1866.11 0 0 746.51zm2612.62 -746.51l1866.11 0 0 746.51 -1866.11 0 0 -746.51zm-4851.88 0l0 746.51 -1493.08 0 0 -746.51 1493.08 0zm-1493.08 5225.24l0 -746.51 1493.08 0 0 746.51 -1493.08 0zm1493.08 373.22l0 746.51 -1493.08 0 0 -746.51 1493.08 0zm-1493.08 -1492.95l0 -746.31 1493.08 0 0 746.31 -1493.08 0zm0 -1119.67l0 -746.38 1493.08 0 0 746.38 -1493.08 0zm0 -1119.6l0 -746.51 1493.08 0 0 746.51 -1493.08 0zm0 5598.33l0 -746.38 1493.08 0 0 746.38 -1493.08 0zm1866.24 0l0 -6344.84 1866.11 0 0 6344.84 -1866.11 0zm2239.27 0l0 -6344.84 1866.11 0 0 6344.84 -1866.11 0zm2239.46 0l0 -6344.84 1866.11 0 0 6344.84 -1866.11 0zm2239.27 0l0 -6344.84 1866.31 0 0 6344.84 -1866.31 0z"/>
   <path class="fil0" d="M24903.41 2052.62l746.51 0c103.04,0 186.64,-83.41 186.64,-186.58 0,-102.97 -83.61,-186.58 -186.64,-186.58l-746.51 0c-102.97,0 -186.58,83.61 -186.58,186.58 0,103.17 83.61,186.58 186.58,186.58z"/>
   <path class="fil0" d="M25649.92 3918.93l-746.51 0c-102.97,0 -186.58,83.41 -186.58,186.58 0,102.97 83.61,186.58 186.58,186.58l746.51 0c103.04,0 186.64,-83.61 186.64,-186.58 0,-103.17 -83.61,-186.58 -186.64,-186.58z"/>
   <path class="fil0" d="M25649.92 6158.19l-746.51 0c-102.97,0 -186.58,83.61 -186.58,186.58 0,103.17 83.61,186.77 186.58,186.77l746.51 0c103.04,0 186.64,-83.61 186.64,-186.77 0,-102.97 -83.61,-186.58 -186.64,-186.58z"/>
   <path class="fil0" d="M30128.65 6158.19l-746.51 0c-103.04,0 -186.58,83.61 -186.58,186.58 0,103.17 83.54,186.77 186.58,186.77l746.51 0c103.04,0 186.58,-83.61 186.58,-186.77 0,-102.97 -83.54,-186.58 -186.58,-186.58z"/>
   <path class="fil0" d="M25649.92 7277.92l-746.51 0c-102.97,0 -186.58,83.61 -186.58,186.58 0,103.17 83.61,186.58 186.58,186.58l746.51 0c103.04,0 186.64,-83.41 186.64,-186.58 0,-102.97 -83.61,-186.58 -186.64,-186.58z"/>
   <path class="fil0" d="M32367.92 7277.92l-746.31 0c-103.17,0 -186.77,83.61 -186.77,186.58 0,103.17 83.61,186.58 186.77,186.58l746.31 0c103.17,0 186.64,-83.41 186.64,-186.58 0,-102.97 -83.48,-186.58 -186.64,-186.58z"/>
   <path class="fil0" d="M32367.92 3918.93l-746.31 0c-103.17,0 -186.77,83.41 -186.77,186.58 0,102.97 83.61,186.58 186.77,186.58l746.31 0c103.17,0 186.64,-83.61 186.64,-186.58 0,-103.17 -83.48,-186.58 -186.64,-186.58z"/>
   <path class="fil0" d="M32367.92 5038.46l-746.31 0c-103.17,0 -186.77,83.61 -186.77,186.77 0,102.97 83.61,186.58 186.77,186.58l746.31 0c103.17,0 186.64,-83.61 186.64,-186.58 0,-103.17 -83.48,-186.77 -186.64,-186.77z"/>
   <path class="fil0" d="M27142.88 3172.35l746.31 0c245.65,0 245.46,-373.16 0,-373.16l-746.31 0c-103.17,0 -186.64,83.61 -186.64,186.58 0,103.17 83.48,186.58 186.64,186.58z"/>
   <path class="fil0" d="M27889.19 3918.93l-746.31 0c-103.17,0 -186.64,83.41 -186.64,186.58 0,102.97 83.48,186.58 186.64,186.58l746.31 0c103.17,0 186.64,-83.61 186.64,-186.58 0,-103.17 -83.48,-186.58 -186.64,-186.58z"/>
   <path class="fil0" d="M27889.19 5038.46l-746.31 0c-103.17,0 -186.64,83.61 -186.64,186.77 0,102.97 83.48,186.58 186.64,186.58l746.31 0c103.17,0 186.64,-83.61 186.64,-186.58 0,-103.17 -83.48,-186.77 -186.64,-186.77z"/>
   <path class="fil0" d="M29382.14 3172.35l746.51 0c103.04,0 186.58,-83.41 186.58,-186.58 0,-102.97 -83.54,-186.58 -186.58,-186.58l-746.51 0c-103.04,0 -186.58,83.61 -186.58,186.58 0,103.17 83.54,186.58 186.58,186.58z"/>
  </g>
 </g>
</svg>
