<svg width="202" height="164" xmlns="http://www.w3.org/2000/svg" xmlns:xlink="http://www.w3.org/1999/xlink" overflow="hidden"><defs><clipPath id="clip0"><rect x="346" y="309" width="202" height="164"/></clipPath><clipPath id="clip1"><rect x="346" y="314" width="159" height="159"/></clipPath><clipPath id="clip2"><rect x="346" y="314" width="159" height="159"/></clipPath><clipPath id="clip3"><rect x="346" y="314" width="159" height="159"/></clipPath><clipPath id="clip4"><rect x="479" y="310" width="69" height="69"/></clipPath><clipPath id="clip5"><rect x="479" y="310" width="69" height="69"/></clipPath><clipPath id="clip6"><rect x="479" y="310" width="69" height="69"/></clipPath></defs><g clip-path="url(#clip0)" transform="translate(-346 -309)"><g clip-path="url(#clip1)"><g clip-path="url(#clip2)"><g clip-path="url(#clip3)"><path d="M485.75 380.285C478.273 372.813 468.128 368.629 457.558 368.656L393.442 368.656C371.48 368.655 353.628 386.368 353.457 408.33 353.457 408.356 353.453 408.38 353.453 408.406L353.453 438.219C353.453 438.709 353.598 439.189 353.871 439.597L358.839 447.05C359.3 447.741 360.076 448.156 360.906 448.156L364.245 448.156C366.987 455.917 375.5 459.986 383.261 457.245 387.509 455.745 390.849 452.404 392.35 448.156L458.651 448.156C461.393 455.917 469.907 459.986 477.667 457.245 481.915 455.745 485.256 452.404 486.756 448.156L490.094 448.156C490.924 448.156 491.7 447.741 492.161 447.05L497.13 439.597C497.402 439.189 497.547 438.709 497.547 438.219L497.547 408.645C497.547 408.548 497.547 408.453 497.543 408.357 497.496 397.805 493.253 387.705 485.75 380.285ZM358.422 410.891 365.875 410.891C367.247 410.891 368.359 412.003 368.359 413.375 368.359 414.747 367.247 415.859 365.875 415.859L358.422 415.859ZM378.297 453.125C372.809 453.125 368.359 448.676 368.359 443.188 368.359 437.699 372.809 433.25 378.297 433.25 383.785 433.25 388.234 437.699 388.234 443.188 388.228 448.673 383.783 453.119 378.297 453.125ZM398.172 443.188 393.203 443.188C393.203 434.955 386.529 428.281 378.297 428.281 370.064 428.281 363.391 434.955 363.391 443.188L362.236 443.188 358.422 437.467 358.422 420.828 365.875 420.828C369.99 420.829 373.327 417.495 373.328 413.38 373.328 412.532 373.184 411.69 372.901 410.891L398.172 410.891ZM398.172 405.922 365.987 405.922C367.288 391.858 379.079 381.095 393.203 381.078L398.172 381.078ZM423.016 443.188 403.141 443.188 403.141 410.891 423.016 410.891ZM423.016 405.922 403.141 405.922 403.141 381.078 423.016 381.078ZM447.859 443.188 427.984 443.188 427.984 410.891 447.859 410.891ZM447.859 405.922 427.984 405.922 427.984 381.078 447.859 381.078ZM393.203 376.109C376.337 376.13 362.319 389.108 361.001 405.922L358.529 405.922C359.95 387.692 375.157 373.625 393.442 373.625L457.558 373.625C475.843 373.625 491.05 387.692 492.471 405.922L490.001 405.922C488.682 389.107 474.663 376.129 457.797 376.109ZM485.013 405.922 452.828 405.922 452.828 381.078 457.797 381.078C471.921 381.095 483.712 391.858 485.013 405.922ZM472.703 453.125C467.215 453.125 462.766 448.676 462.766 443.188 462.766 437.699 467.215 433.25 472.703 433.25 478.191 433.25 482.641 437.699 482.641 443.188 482.634 448.673 478.189 453.119 472.703 453.125ZM492.578 437.467 488.764 443.188 487.609 443.188C487.609 434.955 480.936 428.281 472.703 428.281 464.471 428.281 457.797 434.955 457.797 443.188L452.828 443.188 452.828 410.891 492.578 410.891Z"/><path d="M378.297 435.424C374.009 435.424 370.533 438.9 370.533 443.188 370.533 447.475 374.009 450.951 378.297 450.951 382.585 450.951 386.061 447.475 386.061 443.188 386.056 438.902 382.583 435.429 378.297 435.424ZM378.297 445.982C376.753 445.982 375.502 444.731 375.502 443.188 375.502 441.644 376.753 440.393 378.297 440.393 379.84 440.393 381.092 441.644 381.092 443.188 381.09 444.73 379.84 445.981 378.297 445.982Z"/><path d="M472.703 435.424C468.415 435.424 464.939 438.9 464.939 443.188 464.939 447.475 468.415 450.951 472.703 450.951 476.991 450.951 480.467 447.475 480.467 443.188 480.462 438.902 476.989 435.429 472.703 435.424ZM472.703 445.982C471.16 445.982 469.908 444.731 469.908 443.188 469.908 441.644 471.16 440.393 472.703 440.393 474.247 440.393 475.498 441.644 475.498 443.188 475.496 444.73 474.246 445.981 472.703 445.982Z"/><path d="M457.797 415.859 462.766 415.859 462.766 420.828 457.797 420.828Z"/><path d="M438.729 347.948 442.44 344.646C434.13 335.29 419.81 334.443 410.454 342.753 410.45 342.757 410.445 342.761 410.441 342.765L413.743 346.477C421.042 339.984 432.222 340.636 438.716 347.934 438.72 347.939 438.724 347.944 438.728 347.948Z"/><path d="M432.926 352.917 436.639 349.614C431.174 343.463 421.758 342.906 415.606 348.37 415.603 348.373 415.6 348.375 415.598 348.378L418.9 352.09C422.997 348.445 429.273 348.811 432.918 352.908 432.921 352.911 432.923 352.914 432.926 352.917Z"/><path d="M443.966 342.1 447.658 338.775C436.645 326.538 417.798 325.545 405.56 336.558 405.559 336.559 405.558 336.56 405.557 336.561L408.882 340.253C419.078 331.074 434.785 331.9 443.963 342.097 443.964 342.098 443.965 342.099 443.966 342.1Z"/><path d="M430.158 358.408C430.158 360.981 428.073 363.066 425.5 363.066 422.927 363.066 420.842 360.981 420.842 358.408 420.842 355.836 422.927 353.75 425.5 353.75 428.073 353.75 430.158 355.836 430.158 358.408Z"/></g></g></g><g clip-path="url(#clip4)"><g clip-path="url(#clip5)"><g clip-path="url(#clip6)"><path d="M544.766 319.703 482.234 319.703C481.639 319.703 481.156 320.186 481.156 320.781L481.156 366.062C481.156 366.658 481.639 367.141 482.234 367.141L544.766 367.141C545.361 367.141 545.844 366.658 545.844 366.062L545.844 320.781C545.844 320.186 545.361 319.703 544.766 319.703ZM543.688 326.172 532.906 326.172 532.906 321.859 543.688 321.859ZM507.031 321.859 517.812 321.859 517.812 326.172 507.031 326.172ZM504.875 326.172 494.094 326.172 494.094 321.859 504.875 321.859ZM519.969 321.859 530.75 321.859 530.75 326.172 519.969 326.172ZM491.938 321.859 491.938 326.172 483.312 326.172 483.312 321.859ZM483.312 352.047 483.312 347.734 491.938 347.734 491.938 352.047ZM491.938 354.203 491.938 358.516 483.312 358.516 483.312 354.203ZM483.312 345.578 483.312 341.266 491.938 341.266 491.938 345.578ZM483.312 339.109 483.312 334.797 491.938 334.797 491.938 339.109ZM483.312 332.641 483.312 328.328 491.938 328.328 491.938 332.641ZM483.312 364.984 483.312 360.672 491.938 360.672 491.938 364.984ZM494.094 364.984 494.094 328.328 504.875 328.328 504.875 364.984ZM507.031 364.984 507.031 328.328 517.812 328.328 517.812 364.984ZM519.969 364.984 519.969 328.328 530.75 328.328 530.75 364.984ZM532.906 364.984 532.906 328.328 543.688 328.328 543.688 364.984Z"/><path d="M497.328 331.562 501.641 331.562C502.236 331.562 502.719 331.08 502.719 330.484 502.719 329.889 502.236 329.406 501.641 329.406L497.328 329.406C496.733 329.406 496.25 329.889 496.25 330.484 496.25 331.08 496.733 331.562 497.328 331.562Z"/><path d="M501.641 342.344 497.328 342.344C496.733 342.344 496.25 342.826 496.25 343.422 496.25 344.017 496.733 344.5 497.328 344.5L501.641 344.5C502.236 344.5 502.719 344.017 502.719 343.422 502.719 342.826 502.236 342.344 501.641 342.344Z"/><path d="M501.641 355.281 497.328 355.281C496.733 355.281 496.25 355.764 496.25 356.359 496.25 356.955 496.733 357.438 497.328 357.438L501.641 357.438C502.236 357.438 502.719 356.955 502.719 356.359 502.719 355.764 502.236 355.281 501.641 355.281Z"/><path d="M527.516 355.281 523.203 355.281C522.608 355.281 522.125 355.764 522.125 356.359 522.125 356.955 522.608 357.438 523.203 357.438L527.516 357.438C528.111 357.438 528.594 356.955 528.594 356.359 528.594 355.764 528.111 355.281 527.516 355.281Z"/><path d="M501.641 361.75 497.328 361.75C496.733 361.75 496.25 362.233 496.25 362.828 496.25 363.424 496.733 363.906 497.328 363.906L501.641 363.906C502.236 363.906 502.719 363.424 502.719 362.828 502.719 362.233 502.236 361.75 501.641 361.75Z"/><path d="M540.453 361.75 536.141 361.75C535.545 361.75 535.062 362.233 535.062 362.828 535.062 363.424 535.545 363.906 536.141 363.906L540.453 363.906C541.049 363.906 541.531 363.424 541.531 362.828 541.531 362.233 541.049 361.75 540.453 361.75Z"/><path d="M540.453 342.344 536.141 342.344C535.545 342.344 535.062 342.826 535.062 343.422 535.062 344.017 535.545 344.5 536.141 344.5L540.453 344.5C541.049 344.5 541.531 344.017 541.531 343.422 541.531 342.826 541.049 342.344 540.453 342.344Z"/><path d="M540.453 348.812 536.141 348.812C535.545 348.812 535.062 349.295 535.062 349.891 535.062 350.486 535.545 350.969 536.141 350.969L540.453 350.969C541.049 350.969 541.531 350.486 541.531 349.891 541.531 349.295 541.049 348.812 540.453 348.812Z"/><path d="M510.266 338.031 514.578 338.031C515.174 338.031 515.656 337.549 515.656 336.953 515.656 336.358 515.174 335.875 514.578 335.875L510.266 335.875C509.67 335.875 509.188 336.358 509.188 336.953 509.188 337.549 509.67 338.031 510.266 338.031Z"/><path d="M514.578 342.344 510.266 342.344C509.67 342.344 509.188 342.826 509.188 343.422 509.188 344.017 509.67 344.5 510.266 344.5L514.578 344.5C515.174 344.5 515.656 344.017 515.656 343.422 515.656 342.826 515.174 342.344 514.578 342.344Z"/><path d="M514.578 348.812 510.266 348.812C509.67 348.812 509.188 349.295 509.188 349.891 509.188 350.486 509.67 350.969 510.266 350.969L514.578 350.969C515.174 350.969 515.656 350.486 515.656 349.891 515.656 349.295 515.174 348.812 514.578 348.812Z"/><path d="M523.203 338.031 527.516 338.031C528.111 338.031 528.594 337.549 528.594 336.953 528.594 336.358 528.111 335.875 527.516 335.875L523.203 335.875C522.608 335.875 522.125 336.358 522.125 336.953 522.125 337.549 522.608 338.031 523.203 338.031Z"/></g></g></g></g></svg>