<?xml version="1.0" encoding="UTF-8"?>
<!DOCTYPE svg PUBLIC "-//W3C//DTD SVG 1.1//EN" "http://www.w3.org/Graphics/SVG/1.1/DTD/svg11.dtd">
<!-- Creator: CorelDRAW 2018 (64 Bit) -->
<svg xmlns="http://www.w3.org/2000/svg" xml:space="preserve" width="100%" height="100%" version="1.1" shape-rendering="geometricPrecision" text-rendering="geometricPrecision" image-rendering="optimizeQuality" fill-rule="evenodd" clip-rule="evenodd"
viewBox="0 0 1384.79 2646.15"
 xmlns:xlink="http://www.w3.org/1999/xlink">
 <g id="Ebene_x0020_1">
  <metadata id="CorelCorpID_0Corel-Layer"/>
  <g id="fuss">
   <path fill="#0A2737" d="M97.14 1516.97c33.76,0 55.79,-15.26 71.16,-34.68 24.7,-31.21 24.3,-45.98 28.65,-80.7 7.7,-61.36 15.06,-129.92 20.44,-194.76l15.6 -143.15c3.79,-17.55 12.72,-21.67 23.78,-32.67l108.48 -106.71 -51.37 428.41c-18.98,136.45 -34.53,292.86 -51.58,431.73l-19.42 160.5c-3.47,17.91 -81.29,189.72 -90.46,209.4 -13.08,28.07 -25.3,55.03 -37.58,82.37l-55.29 124.62c-34,70.26 -82.17,169.7 -10.99,241.4 10.83,10.92 18.39,19.34 32.3,27.67 31.88,19.12 54.32,15.47 90.36,15.47 50.02,0 81.26,-30.31 102.35,-59.93 10.13,-14.23 18.62,-36.09 27.02,-54.12 40.62,-87.17 86.64,-201.78 126.98,-285.77l88.23 -197.52c8.33,-19.37 27.5,-71.82 29.3,-94.18l29.87 -213.18c2.18,6.56 3.5,11.97 4.72,16.45l135.25 464.48c12.38,39.95 23.92,81.52 35.61,123.14 13.94,49.64 54.96,204.7 76.97,240.54 34.05,55.44 77.72,60.09 133.93,60.09 68.29,0 131.98,-69.97 133.53,-141.52 0.33,-15.32 -110.91,-392.98 -122.51,-430.42 -22.11,-71.39 -41.11,-145.21 -63.49,-215.2l-156.39 -534.7c-2.44,-14.99 20.6,-218.46 24.42,-249.04 2.91,-23.32 3.42,-41.2 6.56,-63.99 3.04,-21.99 5.02,-43.1 5.02,-65.54l84.82 133.91c26.61,44.87 69.96,62.05 125.73,93l104.51 57.76c49.79,27.85 141.01,89.28 192.95,89.28 42.85,0 88.19,-48.6 88.19,-91.72 0,-52.43 -11.61,-73.99 -59.98,-98.77l-278.62 -151.77c-25.57,-14.4 -60.42,-82.95 -79.11,-111.39l-181.8 -290.94c-11.73,-19.77 -28.06,-34.76 -45.22,-50.03 -87.44,-77.83 -207.92,-62.69 -287.57,14.02l-324.48 331.69c-59.96,59.95 -70.72,54.97 -80.91,137.81 -7.78,63.14 -14.6,133.29 -22.97,195.76 -8.95,66.78 -14.6,129.33 -23.02,195.95 -4.32,34.2 4.27,59.81 21.79,81.83 13.84,17.4 42.77,35.12 74.24,35.12z"/>
   <path fill="#0A2737" d="M411.11 211.68c0,68.05 22.34,119.36 64.34,157.92 7.47,6.86 19.68,16.47 27.36,22.03 81.47,58.99 194.44,47.63 263.74,-22.07 18.42,-18.53 33.18,-35.52 45.62,-60.22 66.76,-132.52 -33.2,-309.33 -171.75,-309.33 -42.57,0 -76.92,-0.01 -114.99,22.59 -22.79,13.53 -40.36,25.87 -56.83,45.47 -29.11,34.64 -57.49,81.59 -57.49,143.61z"/>
  </g>
 </g>
</svg>
